<?xml version="1.0" standalone="no"?><!DOCTYPE svg PUBLIC "-//W3C//DTD SVG 1.1//EN" "http://www.w3.org/Graphics/SVG/1.1/DTD/svg11.dtd"><svg t="1672243225799" class="icon" viewBox="0 0 1024 1024" version="1.1" xmlns="http://www.w3.org/2000/svg" p-id="10423" xmlns:xlink="http://www.w3.org/1999/xlink" width="200" height="200"><path d="M511.22 927.77l-12.39-4.94c-61.63-24.59-119.25-58.18-171.25-99.84a677.17 677.17 0 0 1-134.2-144.16C115.55 565.99 74.41 433.6 74.41 295.97c0-36.26 2.85-72.2 8.46-106.81l5.05-31.12 31.36 3.2c20.62 2.1 41.83 3.17 63.05 3.17 107.19 0 212.33-28.19 304.05-81.53l16.81-9.78L520 82.88c91.72 53.34 196.78 81.53 303.82 81.53 26.86 0 53.05-1.77 77.85-5.25l32.32-4.54 5.33 32.2c5.92 35.76 8.92 72.48 8.92 109.15 0 137.64-41.15 270.03-118.99 382.86A676.752 676.752 0 0 1 694.99 823c-52.04 41.66-109.7 75.25-171.38 99.84l-12.39 4.93zM144.8 230.31c-2.32 21.54-3.5 43.52-3.5 65.67 0 245.9 144.74 464.11 369.92 559.63 225.31-95.49 370.13-313.69 370.13-559.63 0-22.37-1.24-44.75-3.69-66.86-17.58 1.46-35.59 2.19-53.83 2.19-60.29 0-120.03-7.95-177.56-23.64a667.52 667.52 0 0 1-143.07-57.5 666.808 666.808 0 0 1-143.11 57.5c-57.56 15.69-117.37 23.64-177.75 23.64-12.54 0-25.08-0.33-37.54-1z" fill="#ffffff" p-id="10424" data-spm-anchor-id="a313x.7781069.0.i39" class="selected"></path><path d="M512.16 525.6H421.7l15.68-206.84h183.07z" fill="#ffd100" p-id="10425" data-spm-anchor-id="a313x.7781069.0.i37" class=""></path><path d="M479.51 717.78l33.27-206.85h136.13z" fill="#ffd100" p-id="10426" data-spm-anchor-id="a313x.7781069.0.i38" class=""></path></svg>