<svg xmlns="http://www.w3.org/2000/svg" viewBox="0 0 420 420" width="420" height="420" preserveAspectRatio="xMidYMid meet" style="width: 100%; height: 100%; transform: translate3d(0px, 0px, 0px); content-visibility: visible;"><defs><clipPath id="__lottie_element_74967"><rect width="420" height="420" x="0" y="0"></rect></clipPath><clipPath id="__lottie_element_74969"><path d="M0,0 L420,0 L420,420 L0,420z"></path></clipPath><clipPath id="__lottie_element_74973"><path d="M0,0 L480,0 L480,510 L0,510z"></path></clipPath><clipPath id="__lottie_element_74977"><path d="M0,0 L480,0 L480,510 L0,510z"></path></clipPath><clipPath id="__lottie_element_74984"><path d="M0,0 L480,0 L480,510 L0,510z"></path></clipPath><clipPath id="__lottie_element_74991"><path d="M0,0 L480,0 L480,510 L0,510z"></path></clipPath><clipPath id="__lottie_element_74998"><path d="M0,0 L480,0 L480,510 L0,510z"></path></clipPath><clipPath id="__lottie_element_75005"><path d="M0,0 L480,0 L480,510 L0,510z"></path></clipPath><clipPath id="__lottie_element_75009"><path d="M0,0 L480,0 L480,510 L0,510z"></path></clipPath><clipPath id="__lottie_element_75016"><path d="M0,0 L480,0 L480,510 L0,510z"></path></clipPath><clipPath id="__lottie_element_75023"><path d="M0,0 L480,0 L480,510 L0,510z"></path></clipPath><clipPath id="__lottie_element_75030"><path d="M0,0 L480,0 L480,510 L0,510z"></path></clipPath><clipPath id="__lottie_element_75043"><path d="M0,0 L480,0 L480,510 L0,510z"></path></clipPath></defs><g clip-path="url(#__lottie_element_74967)"><g clip-path="url(#__lottie_element_74969)" transform="matrix(1.13332998752594,0,0,1.13332998752594,-25.999298095703125,-27.999298095703125)" opacity="1" style="display: block;"><g transform="matrix(1,0,0,1,32,35)" opacity="0.67" style="display: block;"><g opacity="1" transform="matrix(1,0,0,1,302.20098876953125,72.44300079345703)"><path fill="rgb(255,255,255)" fill-opacity="0.3" d=" M33.43299865722656,-27.06800079345703 C33.43299865722656,-27.06800079345703 -33.43299865722656,-27.06800079345703 -33.43299865722656,-27.06800079345703 C-35.82699966430664,-27.06800079345703 -37.768001556396484,-25.12700080871582 -37.768001556396484,-22.73200035095215 C-37.768001556396484,-22.73200035095215 -37.768001556396484,22.73200035095215 -37.768001556396484,22.73200035095215 C-37.768001556396484,25.12700080871582 -35.82699966430664,27.06800079345703 -33.43299865722656,27.06800079345703 C-33.43299865722656,27.06800079345703 33.43299865722656,27.06800079345703 33.43299865722656,27.06800079345703 C35.827999114990234,27.06800079345703 37.76900100708008,25.12700080871582 37.76900100708008,22.73200035095215 C37.76900100708008,22.73200035095215 37.76900100708008,-22.73200035095215 37.76900100708008,-22.73200035095215 C37.76900100708008,-25.12700080871582 35.827999114990234,-27.06800079345703 33.43299865722656,-27.06800079345703z"></path></g><g opacity="1" transform="matrix(1,0,0,1,302.3949890136719,22.687000274658203)"><path fill="rgb(255,255,255)" fill-opacity="0.3" d=" M0,-22.687000274658203 C-16.11199951171875,-22.687000274658203 -29.2189998626709,-9.579000473022461 -29.2189998626709,6.5320000648498535 C-29.2189998626709,6.5320000648498535 -29.2189998626709,22.687000274658203 -29.2189998626709,22.687000274658203 C-29.2189998626709,22.687000274658203 -16.155000686645508,22.687000274658203 -16.155000686645508,22.687000274658203 C-16.155000686645508,22.687000274658203 -16.155000686645508,6.5320000648498535 -16.155000686645508,6.5320000648498535 C-16.155000686645508,-2.390000104904175 -8.92199993133545,-9.623000144958496 0,-9.623000144958496 C8.92199993133545,-9.623000144958496 16.155000686645508,-2.390000104904175 16.155000686645508,6.5320000648498535 C16.155000686645508,6.5320000648498535 16.155000686645508,22.687000274658203 16.155000686645508,22.687000274658203 C16.155000686645508,22.687000274658203 29.2189998626709,22.687000274658203 29.2189998626709,22.687000274658203 C29.2189998626709,22.687000274658203 29.2189998626709,6.5320000648498535 29.2189998626709,6.5320000648498535 C29.2189998626709,-9.579000473022461 16.11199951171875,-22.687000274658203 0,-22.687000274658203z"></path></g><g opacity="1" transform="matrix(1,0,0,1,49.63199996948242,38.779998779296875)"><path fill="rgb(255,255,255)" fill-opacity="0.3" d=" M36.2140007019043,-38.779998779296875 C36.2140007019043,-38.779998779296875 -36.2140007019043,-38.779998779296875 -36.2140007019043,-38.779998779296875 C-43.625,-38.779998779296875 -49.63199996948242,-32.770999908447266 -49.63199996948242,-25.361000061035156 C-49.63199996948242,-25.361000061035156 -49.63199996948242,25.36199951171875 -49.63199996948242,25.36199951171875 C-49.63199996948242,32.77299880981445 -43.625,38.779998779296875 -36.2140007019043,38.779998779296875 C-36.2140007019043,38.779998779296875 36.2140007019043,38.779998779296875 36.2140007019043,38.779998779296875 C43.625,38.779998779296875 49.63199996948242,32.77299880981445 49.63199996948242,25.36199951171875 C49.63199996948242,25.36199951171875 49.63199996948242,-25.361000061035156 49.63199996948242,-25.361000061035156 C49.63199996948242,-32.770999908447266 43.625,-38.779998779296875 36.2140007019043,-38.779998779296875z"></path></g><g opacity="1" transform="matrix(1,0,0,1,49.55500030517578,94.47799682617188)"><path fill="rgb(255,255,255)" fill-opacity="0.3" d=" M18.299999237060547,4.785999774932861 C18.299999237060547,4.785999774932861 -18.299999237060547,4.785999774932861 -18.299999237060547,4.785999774932861 C-20.700000762939453,4.785999774932861 -22.645999908447266,2.8399999141693115 -22.645999908447266,0.4390000104904175 C-22.645999908447266,0.4390000104904175 -22.645999908447266,-0.4390000104904175 -22.645999908447266,-0.4390000104904175 C-22.645999908447266,-2.8389999866485596 -20.700000762939453,-4.784999847412109 -18.299999237060547,-4.784999847412109 C-18.299999237060547,-4.784999847412109 18.299999237060547,-4.784999847412109 18.299999237060547,-4.784999847412109 C20.701000213623047,-4.784999847412109 22.64699935913086,-2.8389999866485596 22.64699935913086,-0.4390000104904175 C22.64699935913086,-0.4390000104904175 22.64699935913086,0.4390000104904175 22.64699935913086,0.4390000104904175 C22.64699935913086,2.8399999141693115 20.701000213623047,4.785999774932861 18.299999237060547,4.785999774932861z"></path></g><g opacity="1" transform="matrix(1,0,0,1,49.55500030517578,83.6259994506836)"><path fill="rgb(255,255,255)" fill-opacity="0.3" d=" M-4.784999847412109,-6.065999984741211 C-4.784999847412109,-6.065999984741211 4.785999774932861,-6.065999984741211 4.785999774932861,-6.065999984741211 C4.785999774932861,-6.065999984741211 4.785999774932861,6.066999912261963 4.785999774932861,6.066999912261963 C4.785999774932861,6.066999912261963 -4.784999847412109,6.066999912261963 -4.784999847412109,6.066999912261963 C-4.784999847412109,6.066999912261963 -4.784999847412109,-6.065999984741211 -4.784999847412109,-6.065999984741211z"></path></g><g opacity="1" transform="matrix(1,0,0,1,21.93899917602539,46.209999084472656)"><path fill="rgb(255,255,255)" fill-opacity="0.3" d=" M5.263000011444092,0 C5.263000011444092,2.9070000648498535 2.9070000648498535,5.263000011444092 0,5.263000011444092 C-2.9059998989105225,5.263000011444092 -5.263000011444092,2.9070000648498535 -5.263000011444092,0 C-5.263000011444092,-2.9070000648498535 -2.9059998989105225,-5.263000011444092 0,-5.263000011444092 C2.9070000648498535,-5.263000011444092 5.263000011444092,-2.9070000648498535 5.263000011444092,0z"></path></g><g opacity="1" transform="matrix(1,0,0,1,40.35499954223633,27.093000411987305)"><path fill="rgb(255,255,255)" fill-opacity="0.3" d=" M0,5.26200008392334 C-2.9070000648498535,5.26200008392334 -5.263000011444092,2.9070000648498535 -5.263000011444092,0 C-5.263000011444092,-2.9059998989105225 -2.9070000648498535,-5.263000011444092 0,-5.263000011444092 C2.9070000648498535,-5.263000011444092 5.263000011444092,-2.9059998989105225 5.263000011444092,0 C5.263000011444092,2.9070000648498535 2.9070000648498535,5.26200008392334 0,5.26200008392334z"></path></g><g opacity="1" transform="matrix(1,0,0,1,58.755001068115234,46.209999084472656)"><path fill="rgb(255,255,255)" fill-opacity="0.3" d=" M5.263000011444092,0 C5.263000011444092,2.9070000648498535 2.9070000648498535,5.263000011444092 0,5.263000011444092 C-2.9059998989105225,5.263000011444092 -5.263000011444092,2.9070000648498535 -5.263000011444092,0 C-5.263000011444092,-2.9070000648498535 -2.9059998989105225,-5.263000011444092 0,-5.263000011444092 C2.9070000648498535,-5.263000011444092 5.263000011444092,-2.9070000648498535 5.263000011444092,0z"></path></g><g opacity="1" transform="matrix(1,0,0,1,77.1709976196289,27.093000411987305)"><path fill="rgb(255,255,255)" fill-opacity="0.3" d=" M0,5.26200008392334 C-2.9070000648498535,5.26200008392334 -5.263000011444092,2.9070000648498535 -5.263000011444092,0 C-5.263000011444092,-2.9059998989105225 -2.9070000648498535,-5.263000011444092 0,-5.263000011444092 C2.9070000648498535,-5.263000011444092 5.263000011444092,-2.9059998989105225 5.263000011444092,0 C5.263000011444092,2.9070000648498535 2.9070000648498535,5.26200008392334 0,5.26200008392334z"></path></g><g opacity="1" transform="matrix(1,0,0,1,301.68798828125,301.37799072265625)"><path fill="rgb(255,255,255)" fill-opacity="0.3" d=" M37.14899826049805,-44.52299880981445 C37.14899826049805,-44.52299880981445 -37.14899826049805,-44.52299880981445 -37.14899826049805,-44.52299880981445 C-41.22100067138672,-44.52299880981445 -44.52299880981445,-41.22200012207031 -44.52299880981445,-37.14899826049805 C-44.52299880981445,-37.14899826049805 -44.52299880981445,37.14899826049805 -44.52299880981445,37.14899826049805 C-44.52299880981445,41.22100067138672 -41.22100067138672,44.52299880981445 -37.14899826049805,44.52299880981445 C-37.14899826049805,44.52299880981445 37.14899826049805,44.52299880981445 37.14899826049805,44.52299880981445 C41.22200012207031,44.52299880981445 44.52299880981445,41.22100067138672 44.52299880981445,37.14899826049805 C44.52299880981445,37.14899826049805 44.52299880981445,-37.14899826049805 44.52299880981445,-37.14899826049805 C44.52299880981445,-41.22200012207031 41.22200012207031,-44.52299880981445 37.14899826049805,-44.52299880981445z"></path></g><g opacity="1" transform="matrix(1,0,0,1,176.6699981689453,274.84600830078125)"><path fill="rgb(255,255,255)" fill-opacity="0.3" d=" M8.267999649047852,0 C8.267999649047852,4.565999984741211 4.565999984741211,8.267999649047852 0,8.267999649047852 C-4.565999984741211,8.267999649047852 -8.267999649047852,4.565999984741211 -8.267999649047852,0 C-8.267999649047852,-4.565999984741211 -4.565999984741211,-8.267999649047852 0,-8.267999649047852 C4.565999984741211,-8.267999649047852 8.267999649047852,-4.565999984741211 8.267999649047852,0z"></path><path fill="rgb(255,255,255)" fill-opacity="0.3" d=" M8.267999649047852,0 C8.267999649047852,4.565999984741211 4.565999984741211,8.267999649047852 0,8.267999649047852 C-4.565999984741211,8.267999649047852 -8.267999649047852,4.565999984741211 -8.267999649047852,0 C-8.267999649047852,-4.565999984741211 -4.565999984741211,-8.267999649047852 0,-8.267999649047852 C4.565999984741211,-8.267999649047852 8.267999649047852,-4.565999984741211 8.267999649047852,0z"></path></g><g opacity="1" transform="matrix(1,0,0,1,176.6699981689453,327.1440124511719)"><path fill="rgb(255,255,255)" fill-opacity="0.3" d=" M10.958000183105469,-12.777000427246094 C10.958000183105469,-12.777000427246094 -10.958999633789062,-12.777000427246094 -10.958999633789062,-12.777000427246094 C-16.659000396728516,-12.777000427246094 -21.2810001373291,-8.156000137329102 -21.2810001373291,-2.4549999237060547 C-21.2810001373291,-2.4549999237060547 -21.2810001373291,12.777000427246094 -21.2810001373291,12.777000427246094 C-21.2810001373291,12.777000427246094 21.280000686645508,12.777000427246094 21.280000686645508,12.777000427246094 C21.280000686645508,12.777000427246094 21.280000686645508,-2.4549999237060547 21.280000686645508,-2.4549999237060547 C21.280000686645508,-8.156000137329102 16.659000396728516,-12.777000427246094 10.958000183105469,-12.777000427246094z"></path></g><g opacity="1" transform="matrix(1,0,0,1,176.9320068359375,172.06700134277344)"><path fill="rgb(255,255,255)" fill-opacity="0.3" d=" M40.14699935913086,-32.8489990234375 C40.14699935913086,-32.8489990234375 -40.14699935913086,-32.8489990234375 -40.14699935913086,-32.8489990234375 C-43.03799819946289,-32.8489990234375 -45.382999420166016,-30.5049991607666 -45.382999420166016,-27.613000869750977 C-45.382999420166016,-27.613000869750977 -45.382999420166016,27.613000869750977 -45.382999420166016,27.613000869750977 C-45.382999420166016,30.503999710083008 -43.03799819946289,32.847999572753906 -40.14699935913086,32.847999572753906 C-40.14699935913086,32.847999572753906 40.14699935913086,32.847999572753906 40.14699935913086,32.847999572753906 C43.03900146484375,32.847999572753906 45.382999420166016,30.503999710083008 45.382999420166016,27.613000869750977 C45.382999420166016,27.613000869750977 45.382999420166016,-27.613000869750977 45.382999420166016,-27.613000869750977 C45.382999420166016,-30.5049991607666 43.03900146484375,-32.8489990234375 40.14699935913086,-32.8489990234375z"></path></g><g opacity="1" transform="matrix(1,0,0,1,176.9320068359375,210.21400451660156)"><path fill="rgb(255,255,255)" fill-opacity="0.3" d=" M47.1150016784668,-5.296999931335449 C47.1150016784668,-5.296999931335449 -47.1150016784668,-5.296999931335449 -47.1150016784668,-5.296999931335449 C-50.04100036621094,-5.296999931335449 -52.41299819946289,-2.924999952316284 -52.41299819946289,0.0010000000474974513 C-52.41299819946289,2.9260001182556152 -50.04100036621094,5.297999858856201 -47.1150016784668,5.297999858856201 C-47.1150016784668,5.297999858856201 47.1150016784668,5.297999858856201 47.1150016784668,5.297999858856201 C50.04100036621094,5.297999858856201 52.41299819946289,2.9260001182556152 52.41299819946289,0.0010000000474974513 C52.41299819946289,-2.924999952316284 50.04100036621094,-5.296999931335449 47.1150016784668,-5.296999931335449z"></path></g><g opacity="1" transform="matrix(1,0,0,1,176.6699981689453,344.510009765625)"><path fill="rgb(255,255,255)" fill-opacity="0.3" d=" M43.00400161743164,-4.589000225067139 C43.00400161743164,-4.589000225067139 -43.005001068115234,-4.589000225067139 -43.005001068115234,-4.589000225067139 C-45.53900146484375,-4.589000225067139 -47.59400177001953,-2.5339999198913574 -47.59400177001953,0 C-47.59400177001953,2.5350000858306885 -45.53900146484375,4.589000225067139 -43.005001068115234,4.589000225067139 C-43.005001068115234,4.589000225067139 43.00400161743164,4.589000225067139 43.00400161743164,4.589000225067139 C45.53799819946289,4.589000225067139 47.59299850463867,2.5350000858306885 47.59299850463867,0 C47.59299850463867,-2.5339999198913574 45.53799819946289,-4.589000225067139 43.00400161743164,-4.589000225067139z"></path></g><g opacity="1" transform="matrix(1,0,0,1,349.26300048828125,176.41000366210938)"><path fill="rgb(255,255,255)" fill-opacity="0.3" d=" M-6.5279998779296875,0 C-6.5279998779296875,-3.6050000190734863 -3.6050000190734863,-6.5279998779296875 0,-6.5279998779296875 C3.6050000190734863,-6.5279998779296875 6.5269999504089355,-3.6050000190734863 6.5269999504089355,0 C6.5269999504089355,3.6050000190734863 3.6050000190734863,6.5279998779296875 0,6.5279998779296875 C-3.6050000190734863,6.5279998779296875 -6.5279998779296875,3.6050000190734863 -6.5279998779296875,0z"></path></g><g opacity="1" transform="matrix(1,0,0,1,254.26300048828125,176.41000366210938)"><path fill="rgb(255,255,255)" fill-opacity="0.3" d=" M-6.5279998779296875,0 C-6.5279998779296875,-3.6050000190734863 -3.6050000190734863,-6.5279998779296875 0,-6.5279998779296875 C3.6050000190734863,-6.5279998779296875 6.5269999504089355,-3.6050000190734863 6.5269999504089355,0 C6.5269999504089355,3.6050000190734863 3.6050000190734863,6.5279998779296875 0,6.5279998779296875 C-3.6050000190734863,6.5279998779296875 -6.5279998779296875,3.6050000190734863 -6.5279998779296875,0z"></path></g><g opacity="1" transform="matrix(1.0800000429153442,0,0,1.0800000429153442,302,176.43099975585938)"><path fill="rgb(255,255,255)" fill-opacity="0.3" d=" M-4.914999961853027,4.860000133514404 C-7.5920000076293945,2.1640000343322754 -7.573999881744385,-2.190999984741211 -4.875999927520752,-4.886000156402588 C-2.1659998893737793,-7.591000080108643 2.197999954223633,-7.585000038146973 4.900000095367432,-4.873000144958496 C7.591000080108643,-2.1710000038146973 7.578999996185303,2.2290000915527344 4.870999813079834,4.913000106811523 C2.1630001068115234,7.5970001220703125 -2.2200000286102295,7.573999881744385 -4.914999961853027,4.860000133514404z"></path></g></g><g transform="matrix(0.596615731716156,0.8025270104408264,-0.8025270104408264,0.596615731716156,341.0966796875,159.0321502685547)" opacity="1" style="display: block;"><g opacity="1" transform="matrix(1,0,0,1,37.48899841308594,37.4900016784668)"></g><g opacity="1" transform="matrix(1,0,0,1,37.492000579833984,37.487998962402344)"><path stroke-linecap="round" stroke-linejoin="round" fill-opacity="0" stroke="rgb(255,255,255)" stroke-opacity="1" stroke-width="6" d=" M17.729000091552734,13.65999984741211 C18.172000885009766,12.633000373840332 18.06599998474121,11.668000221252441 17.323999404907227,10.817000389099121 C16.927000045776367,10.361000061035156 16.479000091552734,9.949000358581543 16.05299949645996,9.517999649047852 C15.164999961853027,8.616999626159668 14.925000190734863,7.570000171661377 15.402000427246094,6.395999908447266 C15.836000442504883,5.327000141143799 16.777999877929688,4.784999847412109 18.084999084472656,4.796000003814697 C18.61400032043457,4.800000190734863 19.142000198364258,4.820000171661377 19.670000076293945,4.801000118255615 C21.222000122070312,4.74399995803833 22.416000366210938,3.5789999961853027 22.457000732421875,2.0329999923706055 C22.492000579833984,0.7429999709129333 22.486000061035156,-0.5490000247955322 22.445999145507812,-1.8389999866485596 C22.398000717163086,-3.381999969482422 21.163000106811523,-4.5980000495910645 19.617000579833984,-4.664999961853027 C19.011999130249023,-4.691999912261963 18.40399932861328,-4.6570000648498535 17.79800033569336,-4.677999973297119 C16.65399932861328,-4.716000080108643 15.815999984741211,-5.260000228881836 15.369999885559082,-6.311999797821045 C14.918999671936035,-7.375999927520752 15.053999900817871,-8.383000373840332 15.861000061035156,-9.24899959564209 C16.26099967956543,-9.678000450134277 16.69700050354004,-10.072999954223633 17.097000122070312,-10.501999855041504 C18.35099983215332,-11.842000007629395 18.31999969482422,-13.53499984741211 17.024999618530273,-14.836000442504883 C16.29400062561035,-15.571000099182129 15.560999870300293,-16.30500030517578 14.826000213623047,-17.03499984741211 C13.531000137329102,-18.32200050354004 11.814000129699707,-18.339000701904297 10.494000434875488,-17.07699966430664 C10.069999694824219,-16.672000885009766 9.67199993133545,-16.238000869750977 9.241999626159668,-15.84000015258789 C8.40999984741211,-15.069000244140625 7.439000129699707,-14.935999870300293 6.4079999923706055,-15.335000038146973 C5.363999843597412,-15.73900032043457 4.789000034332275,-16.538000106811523 4.710999965667725,-17.655000686645508 C4.669000148773193,-18.259000778198242 4.703999996185303,-18.868000030517578 4.691999912261963,-19.474000930786133 C4.6579999923706055,-21.115999221801758 3.446000099182129,-22.375999450683594 1.8079999685287476,-22.43000030517578 C0.5569999814033508,-22.472000122070312 -0.6949999928474426,-22.488000869750977 -1.9470000267028809,-22.4689998626709 C-3.552999973297119,-22.44300079345703 -4.749000072479248,-21.229000091552734 -4.7870001792907715,-19.62700080871582 C-4.802000045776367,-19.020999908447266 -4.776000022888184,-18.413999557495117 -4.797999858856201,-17.80900001525879 C-4.8379998207092285,-16.687999725341797 -5.372000217437744,-15.86299991607666 -6.396999835968018,-15.418000221252441 C-7.4120001792907715,-14.977999687194824 -8.395000457763672,-15.08899974822998 -9.248000144958496,-15.82699966430664 C-9.720999717712402,-16.235000610351562 -10.147000312805176,-16.69700050354004 -10.597000122070312,-17.131000518798828 C-11.930000305175781,-18.416000366210938 -13.609999656677246,-18.4060001373291 -14.918000221252441,-17.104999542236328 C-15.694000244140625,-16.332000732421875 -16.474000930786133,-15.562000274658203 -17.239999771118164,-14.779999732971191 C-18.30500030517578,-13.692000389099121 -18.382999420166016,-12.071000099182129 -17.409000396728516,-10.892000198364258 C-17.02400016784668,-10.425999641418457 -16.579999923706055,-10.008000373840332 -16.155000686645508,-9.57699966430664 C-15.194999694824219,-8.604000091552734 -14.940999984741211,-7.551000118255615 -15.404999732971191,-6.432000160217285 C-15.859999656677246,-5.334000110626221 -16.766000747680664,-4.7829999923706055 -18.1200008392334,-4.7820000648498535 C-18.59000015258789,-4.7820000648498535 -19.05900001525879,-4.793000221252441 -19.52899932861328,-4.785999774932861 C-21.240999221801758,-4.76200008392334 -22.45400047302246,-3.569000005722046 -22.47599983215332,-1.8680000305175781 C-22.492000579833984,-0.656000018119812 -22.489999771118164,0.5559999942779541 -22.468000411987305,1.7680000066757202 C-22.440000534057617,3.372999906539917 -21.218000411987305,4.618000030517578 -19.611000061035156,4.690999984741211 C-19.045000076293945,4.7170000076293945 -18.476999282836914,4.698999881744385 -17.909000396728516,4.703999996185303 C-16.709999084472656,4.7170000076293945 -15.842000007629395,5.263999938964844 -15.390000343322754,6.372000217437744 C-14.942000389099121,7.4670000076293945 -15.121000289916992,8.479999542236328 -15.961000442504883,9.345000267028809 C-16.3700008392334,9.765000343322754 -16.798999786376953,10.166999816894531 -17.201000213623047,10.593999862670898 C-18.33300018310547,11.79699993133545 -18.326000213623047,13.53499984741211 -17.18000030517578,14.711999893188477 C-16.375,15.538999557495117 -15.559000015258789,16.354999542236328 -14.732000350952148,17.15999984741211 C-13.57800006866455,18.284000396728516 -11.907999992370605,18.31800079345703 -10.71399974822998,17.239999771118164 C-10.263999938964844,16.833999633789062 -9.852999687194824,16.385000228881836 -9.414999961853027,15.96500015258789 C-8.536999702453613,15.121000289916992 -7.514999866485596,14.906000137329102 -6.389999866485596,15.364999771118164 C-5.275000095367432,15.819999694824219 -4.756999969482422,16.708999633789062 -4.7230000495910645,17.89299964904785 C-4.708000183105469,18.42099952697754 -4.7270002365112305,18.948999404907227 -4.716000080108643,19.476999282836914 C-4.681000232696533,21.18199920654297 -3.440999984741211,22.43400001525879 -1.7380000352859497,22.464000701904297 C-0.5450000166893005,22.485000610351562 0.6480000019073486,22.48699951171875 1.840999960899353,22.469999313354492 C3.5390000343322754,22.445999145507812 4.744999885559082,21.22800064086914 4.7729997634887695,19.527999877929688 C4.7820000648498535,18.94099998474121 4.748000144958496,18.354000091552734 4.764999866485596,17.76799964904785 C4.800000190734863,16.638999938964844 5.353000164031982,15.829999923706055 6.383999824523926,15.39799976348877 C7.4039998054504395,14.970999717712402 8.380999565124512,15.093000411987305 9.22700023651123,15.845000267028809 C9.63599967956543,16.20800018310547 10.008999824523926,16.611000061035156 10.39900016784668,16.996000289916992 C11.604000091552734,18.18400001525879 12.75100040435791,18.305999755859375 14.196999549865723,17.40399932861328 C14.243000030517578,17.375999450683594 14.307000160217285,17.37700080871582 14.362000465393066,17.363000869750977 C15.357999801635742,16.367000579833984 16.354000091552734,15.369999885559082 17.35099983215332,14.37399959564209 C17.47800064086914,14.13599967956543 17.621999740600586,13.906999588012695 17.729000091552734,13.65999984741211z"></path></g></g><g transform="matrix(1,0,0,1,210,210)" opacity="1" style="display: block;"><g opacity="1" transform="matrix(1,0,0,1,0,0)"></g></g><g transform="matrix(0.596615731716156,0.8025270104408264,-0.8025270104408264,0.596615731716156,337.9859619140625,179.31971740722656)" opacity="1" style="display: block;"><g opacity="1" transform="matrix(1,0,0,1,22.742000579833984,22.738000869750977)"><path fill="rgb(255,255,255)" fill-opacity="0.3" d=" M17.729000091552734,13.65999984741211 C18.172000885009766,12.633000373840332 18.06599998474121,11.668999671936035 17.323999404907227,10.817999839782715 C16.927000045776367,10.362000465393066 16.479000091552734,9.949999809265137 16.05299949645996,9.517999649047852 C15.164999961853027,8.618000030517578 14.925000190734863,7.571000099182129 15.402000427246094,6.3979997634887695 C15.836000442504883,5.328000068664551 16.777999877929688,4.785999774932861 18.086000442504883,4.796000003814697 C18.61400032043457,4.801000118255615 19.142000198364258,4.822000026702881 19.670000076293945,4.802999973297119 C21.222000122070312,4.745999813079834 22.416000366210938,3.5810000896453857 22.457000732421875,2.0350000858306885 C22.492000579833984,0.7450000047683716 22.486000061035156,-0.5479999780654907 22.445999145507812,-1.8370000123977661 C22.398000717163086,-3.380000114440918 21.163000106811523,-4.5970001220703125 19.617000579833984,-4.664999961853027 C19.011999130249023,-4.690999984741211 18.40399932861328,-4.6579999923706055 17.79800033569336,-4.677999973297119 C16.65399932861328,-4.7170000076293945 15.815999984741211,-5.260000228881836 15.369999885559082,-6.311999797821045 C14.918999671936035,-7.375999927520752 15.053999900817871,-8.380999565124512 15.861000061035156,-9.246999740600586 C16.26099967956543,-9.675999641418457 16.69700050354004,-10.072999954223633 17.097000122070312,-10.50100040435791 C18.35099983215332,-11.840999603271484 18.31999969482422,-13.534000396728516 17.024999618530273,-14.835000038146973 C16.29400062561035,-15.569999694824219 15.560999870300293,-16.304000854492188 14.826000213623047,-17.03499984741211 C13.531000137329102,-18.320999145507812 11.814000129699707,-18.34000015258789 10.494000434875488,-17.07699966430664 C10.069999694824219,-16.672000885009766 9.67199993133545,-16.23900032043457 9.241999626159668,-15.84000015258789 C8.40999984741211,-15.069999694824219 7.439000129699707,-14.9350004196167 6.408999919891357,-15.333000183105469 C5.363999843597412,-15.737000465393066 4.789000034332275,-16.535999298095703 4.710999965667725,-17.65399932861328 C4.669000148773193,-18.256999969482422 4.703999996185303,-18.867000579833984 4.691999912261963,-19.472999572753906 C4.6579999923706055,-21.114999771118164 3.446000099182129,-22.375999450683594 1.8079999685287476,-22.43000030517578 C0.5569999814033508,-22.47100067138672 -0.6949999928474426,-22.48699951171875 -1.9470000267028809,-22.466999053955078 C-3.552999973297119,-22.441999435424805 -4.749000072479248,-21.226999282836914 -4.7870001792907715,-19.625999450683594 C-4.802000045776367,-19.020000457763672 -4.776000022888184,-18.413000106811523 -4.797999858856201,-17.80699920654297 C-4.8379998207092285,-16.68600082397461 -5.372000217437744,-15.862000465393066 -6.396999835968018,-15.416999816894531 C-7.4120001792907715,-14.97700023651123 -8.395000457763672,-15.08899974822998 -9.248000144958496,-15.826000213623047 C-9.720999717712402,-16.233999252319336 -10.147000312805176,-16.695999145507812 -10.597000122070312,-17.1299991607666 C-11.930000305175781,-18.415000915527344 -13.609999656677246,-18.405000686645508 -14.918000221252441,-17.104000091552734 C-15.694000244140625,-16.33099937438965 -16.474000930786133,-15.560999870300293 -17.239999771118164,-14.779000282287598 C-18.30500030517578,-13.690999984741211 -18.382999420166016,-12.069999694824219 -17.409000396728516,-10.890999794006348 C-17.02400016784668,-10.425999641418457 -16.579999923706055,-10.006999969482422 -16.155000686645508,-9.576000213623047 C-15.194999694824219,-8.602999687194824 -14.940999984741211,-7.548999786376953 -15.404999732971191,-6.429999828338623 C-15.859999656677246,-5.331999778747559 -16.766000747680664,-4.7820000648498535 -18.1200008392334,-4.781000137329102 C-18.59000015258789,-4.78000020980835 -19.05900001525879,-4.793000221252441 -19.52899932861328,-4.785999774932861 C-21.240999221801758,-4.761000156402588 -22.45400047302246,-3.569000005722046 -22.47599983215332,-1.8680000305175781 C-22.492000579833984,-0.6549999713897705 -22.489999771118164,0.5580000281333923 -22.468000411987305,1.7699999809265137 C-22.440000534057617,3.375 -21.218000411987305,4.61899995803833 -19.611000061035156,4.692999839782715 C-19.045000076293945,4.7179999351501465 -18.476999282836914,4.699999809265137 -17.909000396728516,4.705999851226807 C-16.709999084472656,4.7179999351501465 -15.842000007629395,5.264999866485596 -15.388999938964844,6.372000217437744 C-14.942000389099121,7.4679999351501465 -15.121000289916992,8.482000350952148 -15.961000442504883,9.345999717712402 C-16.3700008392334,9.767000198364258 -16.798999786376953,10.168000221252441 -17.201000213623047,10.595999717712402 C-18.33300018310547,11.79800033569336 -18.326000213623047,13.536999702453613 -17.18000030517578,14.71399974822998 C-16.375,15.541000366210938 -15.559000015258789,16.356000900268555 -14.732000350952148,17.160999298095703 C-13.57800006866455,18.28499984741211 -11.907999992370605,18.31800079345703 -10.71399974822998,17.239999771118164 C-10.263999938964844,16.833999633789062 -9.85200023651123,16.386999130249023 -9.414999961853027,15.967000007629395 C-8.536999702453613,15.123000144958496 -7.514999866485596,14.906999588012695 -6.389999866485596,15.366999626159668 C-5.275000095367432,15.821999549865723 -4.75600004196167,16.711000442504883 -4.7230000495910645,17.895000457763672 C-4.708000183105469,18.422000885009766 -4.7270002365112305,18.951000213623047 -4.716000080108643,19.479000091552734 C-4.681000232696533,21.183000564575195 -3.440999984741211,22.434999465942383 -1.7380000352859497,22.464000701904297 C-0.5450000166893005,22.485000610351562 0.6480000019073486,22.48699951171875 1.840999960899353,22.47100067138672 C3.5390000343322754,22.44700050354004 4.744999885559082,21.229999542236328 4.7729997634887695,19.52899932861328 C4.7820000648498535,18.94300079345703 4.748000144958496,18.354000091552734 4.764999866485596,17.76799964904785 C4.800000190734863,16.639999389648438 5.353000164031982,15.831000328063965 6.383999824523926,15.399999618530273 C7.4039998054504395,14.972999572753906 8.381999969482422,15.093999862670898 9.22700023651123,15.845999717712402 C9.63599967956543,16.208999633789062 10.008999824523926,16.613000869750977 10.39900016784668,16.996999740600586 C11.604000091552734,18.184999465942383 12.75100040435791,18.308000564575195 14.196999549865723,17.4060001373291 C14.243000030517578,17.37700080871582 14.307000160217285,17.375999450683594 14.362000465393066,17.363000869750977 C15.357999801635742,16.367000579833984 16.354999542236328,15.371999740600586 17.35099983215332,14.37600040435791 C17.47800064086914,14.137999534606934 17.621999740600586,13.906999588012695 17.729000091552734,13.65999984741211z"></path></g></g><g transform="matrix(0.9993991255760193,0.03466128185391426,-0.03466128185391426,0.9993991255760193,20.579883575439453,143.3848876953125)" opacity="1" style="display: block;"><g opacity="1" transform="matrix(1,0,0,1,34.9900016784668,89.91300201416016)"><path stroke-linecap="round" stroke-linejoin="round" fill-opacity="0" stroke="rgb(255,255,255)" stroke-opacity="1" stroke-width="6" d=" M7.5269999504089355,-19.989999771118164 C7.5269999504089355,-19.989999771118164 -19.989999771118164,7.5269999504089355 -19.989999771118164,7.5269999504089355 C-19.989999771118164,7.5269999504089355 -7.5279998779296875,19.989999771118164 -7.5279998779296875,19.989999771118164 C-7.5279998779296875,19.989999771118164 19.989999771118164,-7.5269999504089355 19.989999771118164,-7.5269999504089355 C19.989999771118164,-7.5269999504089355 7.5269999504089355,-19.989999771118164 7.5269999504089355,-19.989999771118164z"></path></g><g opacity="1" transform="matrix(1,0,0,1,89.75900268554688,35.14400100708008)"><path stroke-linecap="round" stroke-linejoin="round" fill-opacity="0" stroke="rgb(255,255,255)" stroke-opacity="1" stroke-width="6" d=" M7.681000232696533,-20.143999099731445 C7.681000232696533,-20.143999099731445 -20.143999099731445,7.681000232696533 -20.143999099731445,7.681000232696533 C-20.143999099731445,7.681000232696533 -7.682000160217285,20.143999099731445 -7.682000160217285,20.143999099731445 C-7.682000160217285,20.143999099731445 20.143999099731445,-7.681000232696533 20.143999099731445,-7.681000232696533 C20.143999099731445,-7.681000232696533 7.681000232696533,-20.143999099731445 7.681000232696533,-20.143999099731445z"></path></g><g opacity="1" transform="matrix(1,0,0,1,62.45100021362305,62.45100021362305)"><path stroke-linecap="round" stroke-linejoin="round" fill-opacity="0" stroke="rgb(255,255,255)" stroke-opacity="1" stroke-width="6" d=" M14.628000259399414,2.1649999618530273 C14.628000259399414,2.1649999618530273 -2.1649999618530273,-14.628000259399414 -2.1649999618530273,-14.628000259399414 C-5.60699987411499,-18.06999969482422 -11.185999870300293,-18.06999969482422 -14.628000259399414,-14.628000259399414 C-18.069000244140625,-11.187000274658203 -18.069000244140625,-5.605999946594238 -14.628000259399414,-2.1649999618530273 C-14.628000259399414,-2.1649999618530273 2.1649999618530273,14.628999710083008 2.1649999618530273,14.628999710083008 C5.60699987411499,18.06999969482422 11.187000274658203,18.06999969482422 14.628000259399414,14.628999710083008 C18.069000244140625,11.187000274658203 18.069000244140625,5.605999946594238 14.628000259399414,2.1649999618530273z"></path></g><g opacity="1" transform="matrix(1,0,0,1,71.7969970703125,53.20100021362305)"><path stroke-linecap="round" stroke-linejoin="round" fill-opacity="0" stroke="rgb(255,255,255)" stroke-opacity="0.6" stroke-width="6" d=" M2.568000078201294,-2.568000078201294 C2.568000078201294,-2.568000078201294 -2.568000078201294,2.568000078201294 -2.568000078201294,2.568000078201294"></path></g><g opacity="1" transform="matrix(1,0,0,1,53.37300109863281,71.625)"><path stroke-linecap="round" stroke-linejoin="round" fill-opacity="0" stroke="rgb(255,255,255)" stroke-opacity="0.6" stroke-width="6" d=" M2.568000078201294,-2.568000078201294 C2.568000078201294,-2.568000078201294 -2.568000078201294,2.568000078201294 -2.568000078201294,2.568000078201294"></path></g><g opacity="1" transform="matrix(1,0,0,1,34.9900016784668,90.31500244140625)"><path fill="rgb(255,255,255)" fill-opacity="0.3" d=" M7.5269999504089355,-19.989999771118164 C7.5269999504089355,-19.989999771118164 -19.989999771118164,7.5269999504089355 -19.989999771118164,7.5269999504089355 C-19.989999771118164,7.5269999504089355 -7.5279998779296875,19.989999771118164 -7.5279998779296875,19.989999771118164 C-7.5279998779296875,19.989999771118164 19.989999771118164,-7.5269999504089355 19.989999771118164,-7.5269999504089355 C19.989999771118164,-7.5269999504089355 7.5269999504089355,-19.989999771118164 7.5269999504089355,-19.989999771118164z"></path></g><g opacity="1" transform="matrix(1,0,0,1,89.75900268554688,35.54600143432617)"><path fill="rgb(255,255,255)" fill-opacity="0.3" d=" M7.681000232696533,-20.143999099731445 C7.681000232696533,-20.143999099731445 -20.143999099731445,7.681000232696533 -20.143999099731445,7.681000232696533 C-20.143999099731445,7.681000232696533 -7.682000160217285,20.143999099731445 -7.682000160217285,20.143999099731445 C-7.682000160217285,20.143999099731445 20.143999099731445,-7.681000232696533 20.143999099731445,-7.681000232696533 C20.143999099731445,-7.681000232696533 7.681000232696533,-20.143999099731445 7.681000232696533,-20.143999099731445z"></path></g><g opacity="1" transform="matrix(1,0,0,1,62.45100021362305,62.45100021362305)"><path fill="rgb(255,255,255)" fill-opacity="0.3" d=" M14.628000259399414,2.1649999618530273 C14.628000259399414,2.1649999618530273 -2.1649999618530273,-14.628000259399414 -2.1649999618530273,-14.628000259399414 C-5.60699987411499,-18.06999969482422 -11.185999870300293,-18.06999969482422 -14.628000259399414,-14.628000259399414 C-18.069000244140625,-11.187000274658203 -18.069000244140625,-5.605999946594238 -14.628000259399414,-2.1649999618530273 C-14.628000259399414,-2.1649999618530273 2.1649999618530273,14.628999710083008 2.1649999618530273,14.628999710083008 C5.60699987411499,18.06999969482422 11.187000274658203,18.06999969482422 14.628000259399414,14.628999710083008 C18.069000244140625,11.187000274658203 18.069000244140625,5.605999946594238 14.628000259399414,2.1649999618530273z"></path></g></g><g transform="matrix(0.9998427033424377,0.017737602815032005,-0.017737602815032005,0.9998427033424377,19.6185302734375,144.38816833496094)" opacity="0.8708399342481332" style="display: block;"><g opacity="1" transform="matrix(1,0,0,1,44.369998931884766,45.058998107910156)"><path stroke-linecap="round" stroke-linejoin="round" fill-opacity="0" stroke="rgb(255,255,255)" stroke-opacity="0.6" stroke-width="6" d=" M-11.286999702453613,11.28600025177002 C-11.286999702453613,-1.180999994277954 -1.1799999475479126,-11.28600025177002 11.286999702453613,-11.28600025177002"></path></g><g opacity="1" transform="matrix(1,0,0,1,80.34300231933594,81.03199768066406)"><path stroke-linecap="round" stroke-linejoin="round" fill-opacity="0" stroke="rgb(255,255,255)" stroke-opacity="0.6" stroke-width="6" d=" M11.286999702453613,-11.286999702453613 C11.286999702453613,1.1799999475479126 1.180999994277954,11.286999702453613 -11.286999702453613,11.286999702453613"></path></g><g opacity="1" transform="matrix(1,0,0,1,38.34199905395508,39.03200149536133)"><path stroke-linecap="round" stroke-linejoin="round" fill-opacity="0" stroke="rgb(255,255,255)" stroke-opacity="0.3" stroke-width="6" d=" M-17.31399917602539,17.31399917602539 C-17.31399917602539,-1.8109999895095825 -1.809999942779541,-17.31399917602539 17.31399917602539,-17.31399917602539"></path></g><g opacity="1" transform="matrix(1,0,0,1,86.37000274658203,87.05999755859375)"><path stroke-linecap="round" stroke-linejoin="round" fill-opacity="0" stroke="rgb(255,255,255)" stroke-opacity="0.3" stroke-width="6" d=" M17.31399917602539,-17.31399917602539 C17.31399917602539,1.8109999895095825 1.809999942779541,17.31399917602539 -17.31399917602539,17.31399917602539"></path></g></g><g transform="matrix(1,0,0,1,185,292.95098876953125)" opacity="0.3558628857162578" style="display: block;"><g opacity="1" transform="matrix(1,0,0,1,41.87699890136719,16.64299964904785)"><path stroke-linecap="round" stroke-linejoin="round" fill-opacity="0" stroke="rgb(255,255,255)" stroke-opacity="0.6" stroke-width="6" d=" M-3.7679998874664307,-13.642999649047852 C3.7669999599456787,-6.107999801635742 3.7669999599456787,6.107999801635742 -3.7679998874664307,13.642999649047852"></path></g><g opacity="1" transform="matrix(1,0,0,1,4.882999897003174,16.64299964904785)"><path stroke-linecap="round" stroke-linejoin="round" fill-opacity="0" stroke="rgb(255,255,255)" stroke-opacity="0.6" stroke-width="6" d=" M3.7679998874664307,13.642999649047852 C-3.7669999599456787,6.107999801635742 -3.7669999599456787,-6.107999801635742 3.7679998874664307,-13.642999649047852"></path></g></g><g transform="matrix(1,0,0,1,174.5,285.95098876953125)" opacity="6.923606319730879e-7" style="display: block;"><g opacity="1" transform="matrix(1,0,0,1,61.479000091552734,23.929000854492188)"><path stroke-linecap="round" stroke-linejoin="round" fill-opacity="0" stroke="rgb(255,255,255)" stroke-opacity="0.3" stroke-width="6" d=" M-5.7789998054504395,-20.929000854492188 C5.78000020980835,-9.369999885559082 5.78000020980835,9.369999885559082 -5.7789998054504395,20.929000854492188"></path></g><g opacity="1" transform="matrix(1,0,0,1,5.889999866485596,23.929000854492188)"><path stroke-linecap="round" stroke-linejoin="round" fill-opacity="0" stroke="rgb(255,255,255)" stroke-opacity="0.3" stroke-width="6" d=" M5.78000020980835,20.929000854492188 C-5.7789998054504395,9.369999885559082 -5.7789998054504395,-9.369999885559082 5.78000020980835,-20.929000854492188"></path></g></g><g clip-path="url(#__lottie_element_75043)" transform="matrix(1,0,0,1,-30,-43)" opacity="1" style="display: block;"><g transform="matrix(1,0,0,1,61.5,326.81201171875)" opacity="1" style="display: block;"><g opacity="1" transform="matrix(1,0,0,1,74.63400268554688,74.63400268554688)"><path stroke-linecap="round" stroke-linejoin="round" fill-opacity="0" stroke="rgb(255,255,255)" stroke-opacity="0.3" stroke-width="8" d=" M23.365999221801758,-23.365999221801758 C-2.443000078201294,-23.365999221801758 -23.365999221801758,-2.443000078201294 -23.365999221801758,23.365999221801758"></path></g><g opacity="1" transform="matrix(1,0,0,1,56.53300094604492,56.53300094604492)"><path stroke-linecap="round" stroke-linejoin="round" fill-opacity="0" stroke="rgb(255,255,255)" stroke-opacity="0.3" stroke-width="8" d=" M-41.46699905395508,41.46699905395508 C-41.46699905395508,-4.335000038146973 -4.335999965667725,-41.46699905395508 41.46699905395508,-41.46699905395508"></path></g><g opacity="1" transform="matrix(1,0,0,1,50.5,50.5)"><path stroke-linecap="round" stroke-linejoin="round" fill-opacity="0" stroke="rgb(255,255,255)" stroke-opacity="0.3" stroke-width="8" d=" M47.5,-47.5 C-4.9670000076293945,-47.5 -47.5,-4.9670000076293945 -47.5,47.5"></path></g><g opacity="1" transform="matrix(1,0,0,1,68.5999984741211,68.5999984741211)"><path stroke-linecap="round" stroke-linejoin="round" fill-opacity="0" stroke="rgb(255,255,255)" stroke-opacity="0.3" stroke-width="8" d=" M-29.39900016784668,29.39900016784668 C-29.39900016784668,-3.075000047683716 -3.0739998817443848,-29.39900016784668 29.39900016784668,-29.39900016784668"></path></g><g opacity="1" transform="matrix(1,0,0,1,62.56700134277344,62.56700134277344)"><path stroke-linecap="round" stroke-linejoin="round" fill-opacity="0" stroke="rgb(255,255,255)" stroke-opacity="0.3" stroke-width="8" d=" M35.43299865722656,-35.43299865722656 C-3.7049999237060547,-35.43299865722656 -35.43299865722656,-3.7049999237060547 -35.43299865722656,35.43299865722656"></path></g><g opacity="1" transform="matrix(1,0,0,1,80.66799926757812,80.66699981689453)"><path stroke-linecap="round" stroke-linejoin="round" fill-opacity="0" stroke="rgb(255,255,255)" stroke-opacity="0.3" stroke-width="8" d=" M-17.332000732421875,17.332000732421875 C-17.332000732421875,-1.812000036239624 -1.812000036239624,-17.332000732421875 17.332000732421875,-17.332000732421875"></path></g><g opacity="1" transform="matrix(1,0,0,1,86.70099639892578,86.70099639892578)"><path stroke-linecap="round" stroke-linejoin="round" fill-opacity="0" stroke="rgb(255,255,255)" stroke-opacity="0.3" stroke-width="8" d=" M-11.298999786376953,11.298999786376953 C-11.298999786376953,-1.180999994277954 -1.180999994277954,-11.298999786376953 11.298999786376953,-11.298999786376953"></path></g><g opacity="1" transform="matrix(1,0,0,1,92.73500061035156,92.73400115966797)"><path stroke-linecap="round" stroke-linejoin="round" fill-opacity="0" stroke="rgb(255,255,255)" stroke-opacity="0.3" stroke-width="8" d=" M-5.264999866485596,5.264999866485596 C-5.264999866485596,5.264999866485596 5.264999866485596,5.264999866485596 5.264999866485596,5.264999866485596 C5.264999866485596,5.264999866485596 5.264999866485596,-5.264999866485596 5.264999866485596,-5.264999866485596 C-0.5509999990463257,-5.264999866485596 -5.264999866485596,-0.550000011920929 -5.264999866485596,5.264999866485596z"></path></g><g opacity="1" transform="matrix(1,0,0,1,50.5,50.5)"><path stroke-linecap="round" stroke-linejoin="round" fill-opacity="0" stroke="rgb(255,255,255)" stroke-opacity="0.3" stroke-width="8" d=" M47.5,-47.5 C-4.9670000076293945,-47.5 -47.5,-4.9670000076293945 -47.5,47.5"></path></g><g opacity="1" transform="matrix(1,0,0,1,63.96500015258789,52.678001403808594)"><path stroke-linecap="round" stroke-linejoin="round" fill-opacity="0" stroke="rgb(255,255,255)" stroke-opacity="0.3" stroke-width="8" d=" M34.03499984741211,-25.545000076293945 C1.7610000371932983,-25.545000076293945 -25.475000381469727,-3.9690001010894775 -34.03499984741211,25.545000076293945"></path></g><g opacity="1" transform="matrix(1,0,0,1,80.66799926757812,80.66699981689453)"><path stroke-linecap="round" stroke-linejoin="round" fill-opacity="0" stroke="rgb(255,255,255)" stroke-opacity="0.3" stroke-width="8" d=" M-17.332000732421875,17.332000732421875 C-17.332000732421875,-1.812000036239624 -1.812000036239624,-17.332000732421875 17.332000732421875,-17.332000732421875"></path></g><g opacity="1" transform="matrix(1,0,0,1,88.80999755859375,53.14500045776367)"><path stroke-linecap="round" stroke-linejoin="round" fill-opacity="0" stroke="rgb(255,255,255)" stroke-opacity="0.6" stroke-width="8" d=" M9.1899995803833,-1.8769999742507935 C2.6640000343322754,-1.8769999742507935 -3.5490000247955322,-0.5379999876022339 -9.1899995803833,1.8769999742507935"></path></g><g opacity="1" transform="matrix(1,0,0,1,86.70099639892578,86.70099639892578)"><path stroke-linecap="round" stroke-linejoin="round" fill-opacity="0" stroke="rgb(255,255,255)" stroke-opacity="0.6" stroke-width="8" d=" M-11.298999786376953,11.298999786376953 C-11.298999786376953,-1.180999994277954 -1.180999994277954,-11.298999786376953 11.298999786376953,-11.298999786376953"></path></g><g opacity="1" transform="matrix(1,0,0,1,92.73500061035156,92.73400115966797)"><path stroke-linecap="round" stroke-linejoin="round" fill-opacity="0" stroke="rgb(255,255,255)" stroke-opacity="0.8" stroke-width="8" d=" M-5.264999866485596,5.264999866485596 C-5.264999866485596,5.264999866485596 5.264999866485596,5.264999866485596 5.264999866485596,5.264999866485596 C5.264999866485596,5.264999866485596 5.264999866485596,-5.264999866485596 5.264999866485596,-5.264999866485596 C-0.5509999990463257,-5.264999866485596 -5.264999866485596,-0.550000011920929 -5.264999866485596,5.264999866485596z"></path></g></g><g transform="matrix(1,0,0,1,97.5,363)" opacity="0.7054901207781191" style="display: block;"><g opacity="1" transform="matrix(1,0,0,1,32.39899826049805,32.39899826049805)"><path stroke-linecap="round" stroke-linejoin="round" fill-opacity="0" stroke="rgb(255,255,255)" stroke-opacity="0.6" stroke-width="8" d=" M-29.39900016784668,29.39900016784668 C-29.39900016784668,-3.075000047683716 -3.0739998817443848,-29.39900016784668 29.39900016784668,-29.39900016784668"></path></g></g><g transform="matrix(1,0,0,1,72.75,366.5)" opacity="0.29797653846146777" style="display: block;"><g opacity="1" transform="matrix(1,0,0,1,13.795000076293945,30.905000686645508)"><path stroke-linecap="round" stroke-linejoin="round" fill-opacity="0" stroke="rgb(255,255,255)" stroke-opacity="0.6" stroke-width="8" d=" M-10.795000076293945,27.9060001373291 C-10.795000076293945,6.4120001792907715 -2.618000030517578,-13.17199993133545 10.795000076293945,-27.9060001373291"></path></g></g></g><g transform="matrix(1,0,0,1,17,20)" opacity="1" style="display: block;"><g opacity="1" transform="matrix(1,0,0,1,191.9320068359375,187.06700134277344)"><path stroke-linecap="round" stroke-linejoin="round" fill-opacity="0" stroke="rgb(255,255,255)" stroke-opacity="1" stroke-width="6" d=" M34.909000396728516,-32.8489990234375 C34.909000396728516,-32.8489990234375 -34.90999984741211,-32.8489990234375 -34.90999984741211,-32.8489990234375 C-40.694000244140625,-32.8489990234375 -45.38199996948242,-28.159000396728516 -45.38199996948242,-22.374000549316406 C-45.38199996948242,-22.374000549316406 -45.38199996948242,27.613000869750977 -45.38199996948242,27.613000869750977 C-45.38199996948242,30.503999710083008 -43.03799819946289,32.847999572753906 -40.14699935913086,32.847999572753906 C-40.14699935913086,32.847999572753906 40.145999908447266,32.847999572753906 40.145999908447266,32.847999572753906 C43.03799819946289,32.847999572753906 45.382999420166016,30.503999710083008 45.382999420166016,27.613000869750977 C45.382999420166016,27.613000869750977 45.382999420166016,-22.374000549316406 45.382999420166016,-22.374000549316406 C45.382999420166016,-28.159000396728516 40.69300079345703,-32.8489990234375 34.909000396728516,-32.8489990234375z"></path></g><g opacity="1" transform="matrix(1,0,0,1,191.93299865722656,187.0679931640625)"><path stroke-linecap="round" stroke-linejoin="round" fill-opacity="0" stroke="rgb(255,255,255)" stroke-opacity="0.3" stroke-width="6" d=" M34.50199890136719,-22.249000549316406 C34.50199890136719,-22.249000549316406 -34.50199890136719,-22.249000549316406 -34.50199890136719,-22.249000549316406 C-34.50199890136719,-22.249000549316406 -34.50199890136719,22.249000549316406 -34.50199890136719,22.249000549316406 C-34.50199890136719,22.249000549316406 34.50199890136719,22.249000549316406 34.50199890136719,22.249000549316406 C34.50199890136719,22.249000549316406 34.50199890136719,-22.249000549316406 34.50199890136719,-22.249000549316406z"></path></g><g opacity="1" transform="matrix(1,0,0,1,191.9320068359375,225.21299743652344)"><path stroke-linecap="round" stroke-linejoin="round" fill-opacity="0" stroke="rgb(255,255,255)" stroke-opacity="1" stroke-width="6" d=" M47.1150016784668,-5.297999858856201 C47.1150016784668,-5.297999858856201 -47.1150016784668,-5.297999858856201 -47.1150016784668,-5.297999858856201 C-50.04100036621094,-5.297999858856201 -52.41299819946289,-2.924999952316284 -52.41299819946289,0.0010000000474974513 C-52.41299819946289,2.9260001182556152 -50.04100036621094,5.297999858856201 -47.1150016784668,5.297999858856201 C-47.1150016784668,5.297999858856201 47.1150016784668,5.297999858856201 47.1150016784668,5.297999858856201 C50.04100036621094,5.297999858856201 52.41299819946289,2.9260001182556152 52.41299819946289,0.0010000000474974513 C52.41299819946289,-2.924999952316284 50.04100036621094,-5.297999858856201 47.1150016784668,-5.297999858856201z"></path></g><g opacity="1" transform="matrix(1,0,0,1,64.63200378417969,53.87200164794922)"><path stroke-linecap="round" stroke-linejoin="round" fill-opacity="0" stroke="rgb(255,255,255)" stroke-opacity="1" stroke-width="6" d=" M36.2140007019043,-38.779998779296875 C36.2140007019043,-38.779998779296875 -36.2140007019043,-38.779998779296875 -36.2140007019043,-38.779998779296875 C-43.625,-38.779998779296875 -49.63199996948242,-32.770999908447266 -49.63199996948242,-25.361000061035156 C-49.63199996948242,-25.361000061035156 -49.63199996948242,25.36199951171875 -49.63199996948242,25.36199951171875 C-49.63199996948242,32.77299880981445 -43.625,38.779998779296875 -36.2140007019043,38.779998779296875 C-36.2140007019043,38.779998779296875 36.2140007019043,38.779998779296875 36.2140007019043,38.779998779296875 C43.625,38.779998779296875 49.63199996948242,32.77299880981445 49.63199996948242,25.36199951171875 C49.63199996948242,25.36199951171875 49.63199996948242,-25.361000061035156 49.63199996948242,-25.361000061035156 C49.63199996948242,-32.770999908447266 43.625,-38.779998779296875 36.2140007019043,-38.779998779296875z"></path></g><g opacity="1" transform="matrix(1,0,0,1,64.55500030517578,109.47799682617188)"><path stroke-linecap="round" stroke-linejoin="round" fill-opacity="0" stroke="rgb(255,255,255)" stroke-opacity="1" stroke-width="6" d=" M18.298999786376953,4.784999847412109 C18.298999786376953,4.784999847412109 -18.301000595092773,4.784999847412109 -18.301000595092773,4.784999847412109 C-20.701000213623047,4.784999847412109 -22.645999908447266,2.8399999141693115 -22.645999908447266,0.4390000104904175 C-22.645999908447266,0.4390000104904175 -22.645999908447266,-0.4390000104904175 -22.645999908447266,-0.4390000104904175 C-22.645999908447266,-2.8389999866485596 -20.701000213623047,-4.784999847412109 -18.301000595092773,-4.784999847412109 C-18.301000595092773,-4.784999847412109 18.298999786376953,-4.784999847412109 18.298999786376953,-4.784999847412109 C20.700000762939453,-4.784999847412109 22.645999908447266,-2.8389999866485596 22.645999908447266,-0.4390000104904175 C22.645999908447266,-0.4390000104904175 22.645999908447266,0.4390000104904175 22.645999908447266,0.4390000104904175 C22.645999908447266,2.8399999141693115 20.700000762939453,4.784999847412109 18.298999786376953,4.784999847412109z"></path></g><g opacity="1" transform="matrix(1,0,0,1,64.55500030517578,98.6259994506836)"><path stroke-linecap="round" stroke-linejoin="round" fill-opacity="0" stroke="rgb(255,255,255)" stroke-opacity="0.6" stroke-width="6" d=" M-7.3470001220703125,-6.065999984741211 C-7.3470001220703125,-6.065999984741211 7.3470001220703125,-6.065999984741211 7.3470001220703125,-6.065999984741211 C7.3470001220703125,-6.065999984741211 7.3470001220703125,6.065999984741211 7.3470001220703125,6.065999984741211 C7.3470001220703125,6.065999984741211 -7.3470001220703125,6.065999984741211 -7.3470001220703125,6.065999984741211 C-7.3470001220703125,6.065999984741211 -7.3470001220703125,-6.065999984741211 -7.3470001220703125,-6.065999984741211z"></path></g><g opacity="1" transform="matrix(1,0,0,1,36.9379997253418,61.209999084472656)"><path stroke-linecap="round" stroke-linejoin="round" fill-opacity="0" stroke="rgb(255,255,255)" stroke-opacity="1" stroke-width="6" d=" M5.263000011444092,0 C5.263000011444092,2.9070000648498535 2.9070000648498535,5.263000011444092 0,5.263000011444092 C-2.9059998989105225,5.263000011444092 -5.263000011444092,2.9070000648498535 -5.263000011444092,0 C-5.263000011444092,-2.9070000648498535 -2.9059998989105225,-5.263000011444092 0,-5.263000011444092 C2.9070000648498535,-5.263000011444092 5.263000011444092,-2.9070000648498535 5.263000011444092,0z"></path></g><g opacity="1" transform="matrix(1,0,0,1,46.327999114990234,51.82699966430664)"><path stroke-linecap="round" stroke-linejoin="round" fill-opacity="0" stroke="rgb(255,255,255)" stroke-opacity="0.6" stroke-width="6" d=" M-5.668000221252441,5.668000221252441 C-5.668000221252441,5.668000221252441 5.668000221252441,-5.668000221252441 5.668000221252441,-5.668000221252441"></path></g><g opacity="1" transform="matrix(1,0,0,1,55.35499954223633,42.09299850463867)"><path stroke-linecap="round" stroke-linejoin="round" fill-opacity="0" stroke="rgb(255,255,255)" stroke-opacity="1" stroke-width="6" d=" M0,5.263000011444092 C-2.9070000648498535,5.263000011444092 -5.263000011444092,2.9070000648498535 -5.263000011444092,0 C-5.263000011444092,-2.9059998989105225 -2.9070000648498535,-5.263000011444092 0,-5.263000011444092 C2.9070000648498535,-5.263000011444092 5.263000011444092,-2.9059998989105225 5.263000011444092,0 C5.263000011444092,2.9070000648498535 2.9070000648498535,5.263000011444092 0,5.263000011444092z"></path></g><g opacity="1" transform="matrix(1,0,0,1,64.74400329589844,51.582000732421875)"><path stroke-linecap="round" stroke-linejoin="round" fill-opacity="0" stroke="rgb(255,255,255)" stroke-opacity="0.6" stroke-width="6" d=" M-5.668000221252441,-5.668000221252441 C-5.668000221252441,-5.668000221252441 5.668000221252441,5.668000221252441 5.668000221252441,5.668000221252441"></path></g><g opacity="1" transform="matrix(1,0,0,1,73.75499725341797,61.209999084472656)"><path stroke-linecap="round" stroke-linejoin="round" fill-opacity="0" stroke="rgb(255,255,255)" stroke-opacity="1" stroke-width="6" d=" M5.263000011444092,0 C5.263000011444092,2.9070000648498535 2.9070000648498535,5.263000011444092 0,5.263000011444092 C-2.9059998989105225,5.263000011444092 -5.263000011444092,2.9070000648498535 -5.263000011444092,0 C-5.263000011444092,-2.9070000648498535 -2.9059998989105225,-5.263000011444092 0,-5.263000011444092 C2.9070000648498535,-5.263000011444092 5.263000011444092,-2.9070000648498535 5.263000011444092,0z"></path></g><g opacity="1" transform="matrix(1,0,0,1,83.14399719238281,51.82099914550781)"><path stroke-linecap="round" stroke-linejoin="round" fill-opacity="0" stroke="rgb(255,255,255)" stroke-opacity="0.6" stroke-width="6" d=" M-5.668000221252441,5.668000221252441 C-5.668000221252441,5.668000221252441 5.668000221252441,-5.668000221252441 5.668000221252441,-5.668000221252441"></path></g><g opacity="1" transform="matrix(1,0,0,1,92.1709976196289,42.09299850463867)"><path stroke-linecap="round" stroke-linejoin="round" fill-opacity="0" stroke="rgb(255,255,255)" stroke-opacity="1" stroke-width="6" d=" M0,5.263000011444092 C-2.9070000648498535,5.263000011444092 -5.263000011444092,2.9070000648498535 -5.263000011444092,0 C-5.263000011444092,-2.9059998989105225 -2.9070000648498535,-5.263000011444092 0,-5.263000011444092 C2.9070000648498535,-5.263000011444092 5.263000011444092,-2.9059998989105225 5.263000011444092,0 C5.263000011444092,2.9070000648498535 2.9070000648498535,5.263000011444092 0,5.263000011444092z"></path></g><g opacity="1" transform="matrix(1,0,0,1,191.6699981689453,342.1440124511719)"><path stroke-linecap="round" stroke-linejoin="round" fill-opacity="0" stroke="rgb(255,255,255)" stroke-opacity="1" stroke-width="6" d=" M10.958999633789062,-12.777000427246094 C10.958999633789062,-12.777000427246094 -10.958000183105469,-12.777000427246094 -10.958000183105469,-12.777000427246094 C-16.658000946044922,-12.777000427246094 -21.280000686645508,-8.156000137329102 -21.280000686645508,-2.4549999237060547 C-21.280000686645508,-2.4549999237060547 -21.280000686645508,12.777000427246094 -21.280000686645508,12.777000427246094 C-21.280000686645508,12.777000427246094 21.2810001373291,12.777000427246094 21.2810001373291,12.777000427246094 C21.2810001373291,12.777000427246094 21.2810001373291,-2.4549999237060547 21.2810001373291,-2.4549999237060547 C21.2810001373291,-8.156000137329102 16.65999984741211,-12.777000427246094 10.958999633789062,-12.777000427246094z"></path></g><g opacity="1" transform="matrix(1,0,0,1,191.6699981689453,289.84600830078125)"><path stroke-linecap="round" stroke-linejoin="round" fill-opacity="0" stroke="rgb(255,255,255)" stroke-opacity="1" stroke-width="6" d=" M8.267999649047852,0 C8.267999649047852,4.565999984741211 4.565999984741211,8.267999649047852 0,8.267999649047852 C-4.565999984741211,8.267999649047852 -8.267999649047852,4.565999984741211 -8.267999649047852,0 C-8.267999649047852,-4.565999984741211 -4.565999984741211,-8.267999649047852 0,-8.267999649047852 C4.565999984741211,-8.267999649047852 8.267999649047852,-4.565999984741211 8.267999649047852,0z"></path><path stroke-linecap="round" stroke-linejoin="round" fill-opacity="0" stroke="rgb(255,255,255)" stroke-opacity="1" stroke-width="6" d=" M8.267999649047852,0 C8.267999649047852,4.565999984741211 4.565999984741211,8.267999649047852 0,8.267999649047852 C-4.565999984741211,8.267999649047852 -8.267999649047852,4.565999984741211 -8.267999649047852,0 C-8.267999649047852,-4.565999984741211 -4.565999984741211,-8.267999649047852 0,-8.267999649047852 C4.565999984741211,-8.267999649047852 8.267999649047852,-4.565999984741211 8.267999649047852,0z"></path></g><g opacity="1" transform="matrix(1,0,0,1,0,0)"><path stroke-linecap="round" stroke-linejoin="round" fill-opacity="0" stroke="rgb(255,255,255)" stroke-opacity="0.6" stroke-width="6" d=" M191.6699981689453,329.36700439453125 C191.6699981689453,329.36700439453125 191.6699981689453,298.114013671875 191.6699981689453,298.114013671875"></path></g><g opacity="1" transform="matrix(1,0,0,1,191.6699981689453,359.510009765625)"><path stroke-linecap="round" stroke-linejoin="round" fill-opacity="0" stroke="rgb(255,255,255)" stroke-opacity="1" stroke-width="6" d=" M43.005001068115234,-4.589000225067139 C43.005001068115234,-4.589000225067139 -43.00400161743164,-4.589000225067139 -43.00400161743164,-4.589000225067139 C-45.53799819946289,-4.589000225067139 -47.59299850463867,-2.5339999198913574 -47.59299850463867,0 C-47.59299850463867,2.5350000858306885 -45.53799819946289,4.589000225067139 -43.00400161743164,4.589000225067139 C-43.00400161743164,4.589000225067139 43.005001068115234,4.589000225067139 43.005001068115234,4.589000225067139 C45.53900146484375,4.589000225067139 47.59400177001953,2.5350000858306885 47.59400177001953,0 C47.59400177001953,-2.5339999198913574 45.53900146484375,-4.589000225067139 43.005001068115234,-4.589000225067139z"></path></g><g opacity="1" transform="matrix(1,0,0,1,340.3330078125,333.66400146484375)"><path stroke-linecap="round" stroke-linejoin="round" fill-opacity="0" stroke="rgb(255,255,255)" stroke-opacity="0.6" stroke-width="6" d=" M-23.815000534057617,30.174999237060547 C-23.815000534057617,30.174999237060547 13.8149995803833,30.174999237060547 13.8149995803833,30.174999237060547 C19.33799934387207,30.174999237060547 23.815000534057617,25.697999954223633 23.815000534057617,20.174999237060547 C23.815000534057617,20.174999237060547 23.815000534057617,-30.174999237060547 23.815000534057617,-30.174999237060547"></path></g><g opacity="1" transform="matrix(1,0,0,1,316.68701171875,316.37799072265625)"><path stroke-linecap="round" stroke-linejoin="round" fill-opacity="0" stroke="rgb(255,255,255)" stroke-opacity="1" stroke-width="6" d=" M47.46099853515625,-12.888999938964844 C47.46099853515625,-12.888999938964844 47.46099853515625,-37.46099853515625 47.46099853515625,-37.46099853515625 C47.46099853515625,-42.98400115966797 42.98400115966797,-47.46099853515625 37.46099853515625,-47.46099853515625 C37.46099853515625,-47.46099853515625 -37.46099853515625,-47.46099853515625 -37.46099853515625,-47.46099853515625 C-42.98400115966797,-47.46099853515625 -47.46099853515625,-42.98400115966797 -47.46099853515625,-37.46099853515625 C-47.46099853515625,-37.46099853515625 -47.46099853515625,37.46099853515625 -47.46099853515625,37.46099853515625 C-47.46099853515625,42.98400115966797 -42.98400115966797,47.46099853515625 -37.46099853515625,47.46099853515625 C-37.46099853515625,47.46099853515625 -0.16899999976158142,47.46099853515625 -0.16899999976158142,47.46099853515625"></path></g><g opacity="1" transform="matrix(1,0,0,1,316.68701171875,316.4100036621094)"><path stroke-linecap="round" stroke-linejoin="round" fill-opacity="0" stroke="rgb(255,255,255)" stroke-opacity="1" stroke-width="6" d=" M19.559999465942383,-22.820999145507812 C19.559999465942383,-22.820999145507812 -19.559999465942383,-22.820999145507812 -19.559999465942383,-22.820999145507812 C-21.361000061035156,-22.820999145507812 -22.82200050354004,-21.361000061035156 -22.82200050354004,-19.55900001525879 C-22.82200050354004,-19.55900001525879 -22.82200050354004,19.559999465942383 -22.82200050354004,19.559999465942383 C-22.82200050354004,21.361000061035156 -21.361000061035156,22.820999145507812 -19.559999465942383,22.820999145507812 C-19.559999465942383,22.820999145507812 19.559999465942383,22.820999145507812 19.559999465942383,22.820999145507812 C21.361000061035156,22.820999145507812 22.82200050354004,21.361000061035156 22.82200050354004,19.559999465942383 C22.82200050354004,19.559999465942383 22.82200050354004,-19.55900001525879 22.82200050354004,-19.55900001525879 C22.82200050354004,-21.361000061035156 21.361000061035156,-22.820999145507812 19.559999465942383,-22.820999145507812z"></path></g><g opacity="1" transform="matrix(1,0,0,1,0,0)"><path stroke-linecap="round" stroke-linejoin="round" fill-opacity="0" stroke="rgb(255,255,255)" stroke-opacity="0.6" stroke-width="6" d=" M316.68701171875,339.6289978027344 C316.68701171875,339.6289978027344 316.68701171875,348.8190002441406 316.68701171875,348.8190002441406"></path></g><g opacity="1" transform="matrix(1,0,0,1,0,0)"><path stroke-linecap="round" stroke-linejoin="round" fill-opacity="0" stroke="rgb(255,255,255)" stroke-opacity="0.6" stroke-width="6" d=" M316.68701171875,284.3909912109375 C316.68701171875,284.3909912109375 316.68701171875,293.58099365234375 316.68701171875,293.58099365234375"></path></g><g opacity="1" transform="matrix(1,0,0,1,0,0)"><path stroke-linecap="round" stroke-linejoin="round" fill-opacity="0" stroke="rgb(255,255,255)" stroke-opacity="0.6" stroke-width="6" d=" M328.1990051269531,339.6289978027344 C328.1990051269531,339.6289978027344 328.1990051269531,348.8190002441406 328.1990051269531,348.8190002441406"></path></g><g opacity="1" transform="matrix(1,0,0,1,0,0)"><path stroke-linecap="round" stroke-linejoin="round" fill-opacity="0" stroke="rgb(255,255,255)" stroke-opacity="0.6" stroke-width="6" d=" M328.1990051269531,284.3909912109375 C328.1990051269531,284.3909912109375 328.1990051269531,293.58099365234375 328.1990051269531,293.58099365234375"></path></g><g opacity="1" transform="matrix(1,0,0,1,0,0)"><path stroke-linecap="round" stroke-linejoin="round" fill-opacity="0" stroke="rgb(255,255,255)" stroke-opacity="0.6" stroke-width="6" d=" M305.17498779296875,339.6289978027344 C305.17498779296875,339.6289978027344 305.17498779296875,348.8190002441406 305.17498779296875,348.8190002441406"></path></g><g opacity="1" transform="matrix(1,0,0,1,0,0)"><path stroke-linecap="round" stroke-linejoin="round" fill-opacity="0" stroke="rgb(255,255,255)" stroke-opacity="0.6" stroke-width="6" d=" M305.17498779296875,284.3909912109375 C305.17498779296875,284.3909912109375 305.17498779296875,293.58099365234375 305.17498779296875,293.58099365234375"></path></g><g opacity="1" transform="matrix(1,0,0,1,0,0)"><path stroke-linecap="round" stroke-linejoin="round" fill-opacity="0" stroke="rgb(255,255,255)" stroke-opacity="0.6" stroke-width="6" d=" M293.6629943847656,316.60400390625 C293.6629943847656,316.60400390625 284.4729919433594,316.60400390625 284.4729919433594,316.60400390625"></path></g><g opacity="1" transform="matrix(1,0,0,1,0,0)"><path stroke-linecap="round" stroke-linejoin="round" fill-opacity="0" stroke="rgb(255,255,255)" stroke-opacity="0.6" stroke-width="6" d=" M348.9010009765625,316.60400390625 C348.9010009765625,316.60400390625 339.71099853515625,316.60400390625 339.71099853515625,316.60400390625"></path></g><g opacity="1" transform="matrix(1,0,0,1,0,0)"><path stroke-linecap="round" stroke-linejoin="round" fill-opacity="0" stroke="rgb(255,255,255)" stroke-opacity="0.6" stroke-width="6" d=" M293.6629943847656,328.11700439453125 C293.6629943847656,328.11700439453125 284.4729919433594,328.11700439453125 284.4729919433594,328.11700439453125"></path></g><g opacity="1" transform="matrix(1,0,0,1,0,0)"><path stroke-linecap="round" stroke-linejoin="round" fill-opacity="0" stroke="rgb(255,255,255)" stroke-opacity="0.6" stroke-width="6" d=" M348.9010009765625,328.11700439453125 C348.9010009765625,328.11700439453125 339.71099853515625,328.11700439453125 339.71099853515625,328.11700439453125"></path></g><g opacity="1" transform="matrix(1,0,0,1,0,0)"><path stroke-linecap="round" stroke-linejoin="round" fill-opacity="0" stroke="rgb(255,255,255)" stroke-opacity="0.6" stroke-width="6" d=" M293.6629943847656,305.0920104980469 C293.6629943847656,305.0920104980469 284.4729919433594,305.0920104980469 284.4729919433594,305.0920104980469"></path></g><g opacity="1" transform="matrix(1,0,0,1,0,0)"><path stroke-linecap="round" stroke-linejoin="round" fill-opacity="0" stroke="rgb(255,255,255)" stroke-opacity="0.6" stroke-width="6" d=" M348.9010009765625,305.0920104980469 C348.9010009765625,305.0920104980469 339.71099853515625,305.0920104980469 339.71099853515625,305.0920104980469"></path></g><g opacity="1" transform="matrix(1,0,0,1,364.26300048828125,191.41000366210938)"><path stroke-linecap="round" stroke-linejoin="round" fill-opacity="0" stroke="rgb(255,255,255)" stroke-opacity="1" stroke-width="6" d=" M-6.5269999504089355,0 C-6.5269999504089355,-3.6050000190734863 -3.6050000190734863,-6.5279998779296875 0,-6.5279998779296875 C3.6050000190734863,-6.5279998779296875 6.5269999504089355,-3.6050000190734863 6.5269999504089355,0 C6.5269999504089355,3.6050000190734863 3.6050000190734863,6.5279998779296875 0,6.5279998779296875 C-3.6050000190734863,6.5279998779296875 -6.5269999504089355,3.6050000190734863 -6.5269999504089355,0z"></path></g><g opacity="1" transform="matrix(1,0,0,1,269.26300048828125,191.41000366210938)"><path stroke-linecap="round" stroke-linejoin="round" fill-opacity="0" stroke="rgb(255,255,255)" stroke-opacity="1" stroke-width="6" d=" M-6.5269999504089355,0 C-6.5269999504089355,-3.6050000190734863 -3.6050000190734863,-6.5279998779296875 0,-6.5279998779296875 C3.6050000190734863,-6.5279998779296875 6.5269999504089355,-3.6050000190734863 6.5269999504089355,0 C6.5269999504089355,3.6050000190734863 3.6050000190734863,6.5279998779296875 0,6.5279998779296875 C-3.6050000190734863,6.5279998779296875 -6.5269999504089355,3.6050000190734863 -6.5269999504089355,0z"></path></g><g opacity="1" transform="matrix(1,0,0,1,316.7900085449219,223.35400390625)"><path stroke-linecap="round" stroke-linejoin="round" fill-opacity="0" stroke="rgb(255,255,255)" stroke-opacity="0.6" stroke-width="6" d=" M44.69300079345703,-14.885000228881836 C38.034000396728516,2.7239999771118164 21.19099998474121,15.406000137329102 1.215999960899353,15.814000129699707 C-19.952999114990234,16.246999740600586 -38.17100143432617,2.763000011444092 -44.69300079345703,-16.246000289916992"></path></g><g opacity="1" transform="matrix(1,0,0,1,274.5820007324219,211.63299560546875)"><path stroke-linecap="round" stroke-linejoin="round" fill-opacity="0" stroke="rgb(255,255,255)" stroke-opacity="1" stroke-width="6" d=" M-6.796999931335449,4.785999774932861 C-6.796999931335449,4.785999774932861 -2.7750000953674316,-4.785999774932861 -2.7750000953674316,-4.785999774932861 C-2.7750000953674316,-4.785999774932861 6.796999931335449,-0.7630000114440918 6.796999931335449,-0.7630000114440918"></path></g><g opacity="1" transform="matrix(1,0,0,1,317.072998046875,159.73399353027344)"><path stroke-linecap="round" stroke-linejoin="round" fill-opacity="0" stroke="rgb(255,255,255)" stroke-opacity="0.6" stroke-width="6" d=" M-44.62200164794922,14.541000366210938 C-37.87300109863281,-2.884999990463257 -21.12299919128418,-15.401000022888184 -1.281999945640564,-15.807000160217285 C19.882999420166016,-16.239999771118164 38.09700012207031,-2.76200008392334 44.62200164794922,16.239999771118164"></path></g><g opacity="1" transform="matrix(1,0,0,1,358.9219970703125,171.18800354003906)"><path stroke-linecap="round" stroke-linejoin="round" fill-opacity="0" stroke="rgb(255,255,255)" stroke-opacity="1" stroke-width="6" d=" M6.796999931335449,-4.785999774932861 C6.796999931335449,-4.785999774932861 2.7739999294281006,4.785999774932861 2.7739999294281006,4.785999774932861 C2.7739999294281006,4.785999774932861 -6.797999858856201,0.7630000114440918 -6.797999858856201,0.7630000114440918"></path></g><g opacity="1" transform="matrix(1,0,0,1,0,0)"><path stroke-linecap="round" stroke-linejoin="round" fill-opacity="0" stroke="rgb(255,255,255)" stroke-opacity="0.3" stroke-width="6" d=" M168.9739990234375,176.6820068359375 C168.9739990234375,176.6820068359375 214.88999938964844,176.6820068359375 214.88999938964844,176.6820068359375"></path></g><g opacity="1" transform="matrix(1,0,0,1,0,0)"><path stroke-linecap="round" stroke-linejoin="round" fill-opacity="0" stroke="rgb(255,255,255)" stroke-opacity="0.3" stroke-width="6" d=" M168.9739990234375,187.06700134277344 C168.9739990234375,187.06700134277344 214.88999938964844,187.06700134277344 214.88999938964844,187.06700134277344"></path></g><g opacity="1" transform="matrix(1,0,0,1,0,0)"><path stroke-linecap="round" stroke-linejoin="round" fill-opacity="0" stroke="rgb(255,255,255)" stroke-opacity="0.3" stroke-width="6" d=" M168.9739990234375,197.4530029296875 C168.9739990234375,197.4530029296875 200.85699462890625,197.4530029296875 200.85699462890625,197.4530029296875"></path></g><g opacity="1" transform="matrix(1,0,0,1,317.20001220703125,87.44200134277344)"><path stroke-linecap="round" stroke-linejoin="round" fill-opacity="0" stroke="rgb(255,255,255)" stroke-opacity="1" stroke-width="6" d=" M33.43199920654297,-27.06800079345703 C33.43199920654297,-27.06800079345703 -33.433998107910156,-27.06800079345703 -33.433998107910156,-27.06800079345703 C-35.827999114990234,-27.06800079345703 -37.76900100708008,-25.12700080871582 -37.76900100708008,-22.73200035095215 C-37.76900100708008,-22.73200035095215 -37.76900100708008,22.73200035095215 -37.76900100708008,22.73200035095215 C-37.76900100708008,25.12700080871582 -35.827999114990234,27.06800079345703 -33.433998107910156,27.06800079345703 C-33.433998107910156,27.06800079345703 33.43199920654297,27.06800079345703 33.43199920654297,27.06800079345703 C35.82699966430664,27.06800079345703 37.768001556396484,25.12700080871582 37.768001556396484,22.73200035095215 C37.768001556396484,22.73200035095215 37.768001556396484,-22.73200035095215 37.768001556396484,-22.73200035095215 C37.768001556396484,-25.12700080871582 35.82699966430664,-27.06800079345703 33.43199920654297,-27.06800079345703z"></path></g><g opacity="1" transform="matrix(1,0,0,1,317.3940124511719,37.6870002746582)"><path stroke-linecap="round" stroke-linejoin="round" fill-opacity="0" stroke="rgb(255,255,255)" stroke-opacity="1" stroke-width="6" d=" M0,-22.687000274658203 C-16.11199951171875,-22.687000274658203 -29.2189998626709,-9.579000473022461 -29.2189998626709,6.5320000648498535 C-29.2189998626709,6.5320000648498535 -29.2189998626709,22.687000274658203 -29.2189998626709,22.687000274658203 C-29.2189998626709,22.687000274658203 -16.155000686645508,22.687000274658203 -16.155000686645508,22.687000274658203 C-16.155000686645508,22.687000274658203 -16.155000686645508,6.5320000648498535 -16.155000686645508,6.5320000648498535 C-16.155000686645508,-2.390000104904175 -8.92199993133545,-9.623000144958496 0,-9.623000144958496 C8.92199993133545,-9.623000144958496 16.155000686645508,-2.390000104904175 16.155000686645508,6.5320000648498535 C16.155000686645508,6.5320000648498535 16.155000686645508,22.687000274658203 16.155000686645508,22.687000274658203 C16.155000686645508,22.687000274658203 29.2189998626709,22.687000274658203 29.2189998626709,22.687000274658203 C29.2189998626709,22.687000274658203 29.2189998626709,6.5320000648498535 29.2189998626709,6.5320000648498535 C29.2189998626709,-9.579000473022461 16.11199951171875,-22.687000274658203 0,-22.687000274658203z"></path></g><g opacity="1" transform="matrix(1,0,0,1,317.20001220703125,87.82599639892578)"><path stroke-linecap="round" stroke-linejoin="round" fill-opacity="0" stroke="rgb(255,255,255)" stroke-opacity="0.6" stroke-width="6" d=" M0,9.190999984741211 C0,9.190999984741211 0,-2.568000078201294 0,-2.568000078201294 C1.8289999961853027,-2.568000078201294 3.312000036239624,-4.050000190734863 3.312000036239624,-5.879000186920166 C3.312000036239624,-7.708000183105469 1.8289999961853027,-9.190999984741211 0,-9.190999984741211 C-1.8289999961853027,-9.190999984741211 -3.312000036239624,-7.708000183105469 -3.312000036239624,-5.879000186920166 C-3.312000036239624,-4.144000053405762 -1.9780000448226929,-2.7209999561309814 -0.27900001406669617,-2.5789999961853027"></path></g></g><g transform="matrix(1,0,0,1,149.75,-233)" opacity="1" style="display: block;"><g opacity="1" transform="matrix(1,0,0,1,46.5629997253418,315.9670104980469)"><path fill="rgb(255,255,255)" fill-opacity="0.3" d=" M19.819000244140625,-42.92100143432617 C14.371000289916992,-49.361000061035156 4.769000053405762,-48.96699905395508 -0.017999999225139618,-42 C-1.190999984741211,-40.29199981689453 -2.453000068664551,-39.082000732421875 -4.354000091552734,-38.11399841308594 C-8.373000144958496,-36.06700134277344 -10.262999534606934,-32.470001220703125 -10.187999725341797,-27.930999755859375 C-10.178000450134277,-27.274999618530273 -10.371000289916992,-26.94499969482422 -10.911999702453613,-26.624000549316406 C-16.481000900268555,-23.315000534057617 -18.910999298095703,-16.729999542236328 -16.89699935913086,-10.57699966430664 C-16.80299949645996,-10.293000221252441 -16.92099952697754,-9.786999702453613 -17.131999969482422,-9.57699966430664 C-21.75,-5.001999855041504 -22.672000885009766,1.281999945640564 -19.472999572753906,6.979000091552734 C-19.07200050354004,7.691999912261963 -19.076000213623047,8.182999610900879 -19.503000259399414,8.885000228881836 C-22.430999755859375,13.696000099182129 -21.791000366210938,19.81999969482422 -18.018999099731445,24.02899932861328 C-17.73900032043457,24.343000411987305 -17.52899932861328,24.89900016784668 -17.58099937438965,25.305999755859375 C-18.482999801635742,32.48099899291992 -12.550000190734863,39.652000427246094 -5.330999851226807,40.03900146484375 C-4.769000053405762,40.069000244140625 -4.385000228881836,40.1879997253418 -4.044000148773193,40.70500183105469 C-1.5140000581741333,44.534000396728516 2.0490000247955322,46.74399948120117 6.593999862670898,47.37099838256836 C6.744999885559082,47.391998291015625 6.888999938964844,47.45600128173828 7.034999847412109,47.5 C7.034999847412109,47.5 9.633000373840332,47.5 9.633000373840332,47.5 C21.361000061035156,47.5 21.350000381469727,39.685001373291016 21.350000381469727,39.59299850463867 C21.350000381469727,9.633999824523926 21.361000061035156,-40.922000885009766 21.361000061035156,-40.922000885009766 C20.816999435424805,-41.630001068115234 20.34600067138672,-42.29899978637695 19.819000244140625,-42.92100143432617z"></path></g><g opacity="1" transform="matrix(1,0,0,1,45.90700149536133,315.0360107421875)"><path stroke-linecap="round" stroke-linejoin="round" fill-opacity="0" stroke="rgb(255,255,255)" stroke-opacity="1" stroke-width="6" d=" M20.475000381469727,-41.99100112915039 C15.027000427246094,-48.430999755859375 5.423999786376953,-48.0369987487793 0.6370000243186951,-41.06999969482422 C-0.5360000133514404,-39.36199951171875 -1.7979999780654907,-38.152000427246094 -3.6989998817443848,-37.183998107910156 C-7.7179999351501465,-35.137001037597656 -9.607999801635742,-31.540000915527344 -9.532999992370605,-27.000999450683594 C-9.52299976348877,-26.344999313354492 -9.715999603271484,-26.014999389648438 -10.256999969482422,-25.694000244140625 C-15.826000213623047,-22.385000228881836 -18.256000518798828,-15.800000190734863 -16.242000579833984,-9.647000312805176 C-16.148000717163086,-9.36299991607666 -16.266000747680664,-8.857000350952148 -16.476999282836914,-8.647000312805176 C-21.094999313354492,-4.072000026702881 -22.017000198364258,2.2119998931884766 -18.81800079345703,7.908999919891357 C-18.41699981689453,8.621999740600586 -18.42099952697754,9.11299991607666 -18.847999572753906,9.8149995803833 C-21.775999069213867,14.62600040435791 -21.135000228881836,20.75 -17.363000869750977,24.958999633789062 C-17.08300018310547,25.273000717163086 -16.874000549316406,25.82900047302246 -16.926000595092773,26.236000061035156 C-17.827999114990234,33.4109992980957 -11.894000053405762,40.582000732421875 -4.675000190734863,40.96900177001953 C-4.11299991607666,40.999000549316406 -3.7300000190734863,41.11800003051758 -3.3889999389648438,41.6349983215332 C-0.859000027179718,45.4640007019043 2.7039999961853027,47.67399978637695 7.249000072479248,48.30099868774414 C7.400000095367432,48.321998596191406 7.545000076293945,48.38600158691406 7.690999984741211,48.43000030517578 C7.690999984741211,48.43000030517578 10.288000106811523,48.43000030517578 10.288000106811523,48.43000030517578 C22.016000747680664,48.43000030517578 22.0049991607666,40.6150016784668 22.0049991607666,40.52299880981445 C22.0049991607666,10.564000129699707 22.016000747680664,-39.992000579833984 22.016000747680664,-39.992000579833984 C21.472000122070312,-40.70000076293945 21.00200080871582,-41.36899948120117 20.475000381469727,-41.99100112915039z"></path></g><g opacity="1" transform="matrix(1,0,0,1,36.638999938964844,308.1830139160156)"><path stroke-linecap="round" stroke-linejoin="round" fill-opacity="0" stroke="rgb(255,255,255)" stroke-opacity="0.6" stroke-width="6" d=" M-6.4019999504089355,-2.2090001106262207 C-1.3200000524520874,-4.044000148773193 4.723999977111816,-1.090999960899353 6.4019999504089355,4.044000148773193"></path></g><g opacity="1" transform="matrix(1,0,0,1,49.08100128173828,349.62799072265625)"><path stroke-linecap="round" stroke-linejoin="round" fill-opacity="0" stroke="rgb(255,255,255)" stroke-opacity="0.6" stroke-width="6" d=" M-7.00600004196167,4.056000232696533 C-4.046999931335449,-2.7339999675750732 1.2029999494552612,-4.056000232696533 7.00600004196167,-3.0209999084472656"></path></g><g opacity="1" transform="matrix(1,0,0,1,45.09199905395508,291.4939880371094)"><path stroke-linecap="round" stroke-linejoin="round" fill-opacity="0" stroke="rgb(255,255,255)" stroke-opacity="0.6" stroke-width="6" d=" M-8.956000328063965,-2.559999942779541 C-4.547999858856201,3.181999921798706 4.958000183105469,2.8510000705718994 8.956000328063965,-3.183000087738037"></path></g><g opacity="1" transform="matrix(1,0,0,1,37.14400100708008,334.6159973144531)"><path stroke-linecap="round" stroke-linejoin="round" fill-opacity="0" stroke="rgb(255,255,255)" stroke-opacity="0.6" stroke-width="6" d=" M-7.888999938964844,5.383999824523926 C-5.818999767303467,-1.1019999980926514 1.1720000505447388,-5.383999824523926 7.888999938964844,-4.2789998054504395"></path></g><g opacity="1" transform="matrix(1,0,0,1,88.7030029296875,285.7919921875)"><path stroke-linecap="round" stroke-linejoin="round" fill-opacity="0" stroke="rgb(255,255,255)" stroke-opacity="1" stroke-width="6" d=" M5.706999778747559,0 C5.706999778747559,3.1519999504089355 3.1519999504089355,5.706999778747559 0,5.706999778747559 C-3.1519999504089355,5.706999778747559 -5.706999778747559,3.1519999504089355 -5.706999778747559,0 C-5.706999778747559,-3.1519999504089355 -3.1519999504089355,-5.706999778747559 0,-5.706999778747559 C3.1519999504089355,-5.706999778747559 5.706999778747559,-3.1519999504089355 5.706999778747559,0z"></path></g><g opacity="1" transform="matrix(1,0,0,1,88.7030029296875,347.9119873046875)"><path stroke-linecap="round" stroke-linejoin="round" fill-opacity="0" stroke="rgb(255,255,255)" stroke-opacity="1" stroke-width="6" d=" M5.706999778747559,0 C5.706999778747559,-3.1519999504089355 3.1519999504089355,-5.706999778747559 0,-5.706999778747559 C-3.1519999504089355,-5.706999778747559 -5.706999778747559,-3.1519999504089355 -5.706999778747559,0 C-5.706999778747559,3.1519999504089355 -3.1519999504089355,5.706999778747559 0,5.706999778747559 C3.1519999504089355,5.706999778747559 5.706999778747559,3.1519999504089355 5.706999778747559,0z"></path></g><g opacity="1" transform="matrix(1,0,0,1,103.56900024414062,316.9670104980469)"><path stroke-linecap="round" stroke-linejoin="round" fill-opacity="0" stroke="rgb(255,255,255)" stroke-opacity="1" stroke-width="6" d=" M5.706999778747559,0 C5.706999778747559,-3.1519999504089355 3.1519999504089355,-5.706999778747559 0,-5.706999778747559 C-3.1519999504089355,-5.706999778747559 -5.706999778747559,-3.1519999504089355 -5.706999778747559,0 C-5.706999778747559,3.1519999504089355 -3.1519999504089355,5.706999778747559 0,5.706999778747559 C3.1519999504089355,5.706999778747559 5.706999778747559,3.1519999504089355 5.706999778747559,0z"></path></g><g opacity="1" transform="matrix(1,0,0,1,78.5510025024414,298.7200012207031)"><path stroke-linecap="round" stroke-linejoin="round" fill-opacity="0" stroke="rgb(255,255,255)" stroke-opacity="0.3" stroke-width="6" d=" M10.390000343322754,-6.964000225067139 C10.390000343322754,-6.964000225067139 10.390000343322754,6.964000225067139 10.390000343322754,6.964000225067139 C10.390000343322754,6.964000225067139 -10.390000343322754,6.964000225067139 -10.390000343322754,6.964000225067139"></path></g><g opacity="1" transform="matrix(1,0,0,1,78.5510025024414,335.2409973144531)"><path stroke-linecap="round" stroke-linejoin="round" fill-opacity="0" stroke="rgb(255,255,255)" stroke-opacity="0.3" stroke-width="6" d=" M10.390000343322754,6.964000225067139 C10.390000343322754,6.964000225067139 10.390000343322754,-6.964000225067139 10.390000343322754,-6.964000225067139 C10.390000343322754,-6.964000225067139 -10.390000343322754,-6.964000225067139 -10.390000343322754,-6.964000225067139"></path></g><g opacity="1" transform="matrix(1,0,0,1,0.23800000548362732,0)"><path stroke-linecap="round" stroke-linejoin="round" fill-opacity="0" stroke="rgb(255,255,255)" stroke-opacity="0.3" stroke-width="6" d=" M68.0979995727539,316.9670104980469 C68.0979995727539,316.9670104980469 97.86299896240234,316.9670104980469 97.86299896240234,316.9670104980469"></path></g></g><g clip-path="url(#__lottie_element_75005)" transform="matrix(1,0,0,1,103,-298)" opacity="1" style="display: block;"><g clip-path="url(#__lottie_element_75030)" transform="matrix(1,0,0,1,0,0)" opacity="1" style="display: none;"><g transform="matrix(1,0,0,1,47,64.25)" opacity="1" style="display: block;"><path stroke-linecap="round" stroke-linejoin="round" fill-opacity="0" stroke="rgb(255,255,255)" stroke-opacity="0.3" stroke-width="6" d="M0 0"></path><g opacity="1" transform="matrix(1,0,0,1,78.31300354003906,299.2200012207031)"><path stroke-linecap="round" stroke-linejoin="round" fill-opacity="0" stroke="rgb(255,255,255)" stroke-opacity="0.3" stroke-width="6" d="M0 0"></path></g><g opacity="1" transform="matrix(1,0,0,1,78.31300354003906,335.7409973144531)"><path stroke-linecap="round" stroke-linejoin="round" fill-opacity="0" stroke="rgb(255,255,255)" stroke-opacity="0.3" stroke-width="6" d="M0 0"></path></g></g></g><g clip-path="url(#__lottie_element_75023)" style="display: block;" transform="matrix(1,0,0,1,0,0)" opacity="1"><g transform="matrix(1,0,0,1,47,64.25)" opacity="1" style="display: block;"><path stroke-linecap="round" stroke-linejoin="round" fill-opacity="0" stroke="rgb(255,255,255)" stroke-opacity="0.3" stroke-width="6" d=" M89.21600341796875,317.4670104980469 C82.33000183105469,317.4670104980469 73.26799774169922,317.4670104980469 69.66899871826172,317.4670104980469 M85.93,306.18 C82.04,306.18 74.99,306.18 70.96,306.18 M85.93,328.78 C82.04,328.78 74.99,328.78 70.96,328.78"></path><g opacity="1" transform="matrix(1,0,0,1,78.31300354003906,299.2200012207031)"><path stroke-linecap="round" stroke-linejoin="round" fill-opacity="0" stroke="rgb(255,255,255)" stroke-opacity="0.3" stroke-width="6" d=" M7.613999843597412,6.964000225067139 C3.7219998836517334,6.964000225067139 -3.328000068664551,6.964000225067139 -7.355000019073486,6.964000225067139"></path></g><g opacity="1" transform="matrix(1,0,0,1,78.31300354003906,335.7409973144531)"><path stroke-linecap="round" stroke-linejoin="round" fill-opacity="0" stroke="rgb(255,255,255)" stroke-opacity="0.3" stroke-width="6" d=" M7.613999843597412,-6.964000225067139 C3.7219998836517334,-6.964000225067139 -3.328000068664551,-6.964000225067139 -7.355000019073486,-6.964000225067139"></path></g></g></g><g clip-path="url(#__lottie_element_75016)" style="display: none;"><g style="display: none;"><path stroke-linecap="round" stroke-linejoin="round" fill-opacity="0"></path><g><path stroke-linecap="round" stroke-linejoin="round" fill-opacity="0"></path></g><g><path stroke-linecap="round" stroke-linejoin="round" fill-opacity="0"></path></g></g></g><g clip-path="url(#__lottie_element_75009)" style="display: none;"><g style="display: none;"><path stroke-linecap="round" stroke-linejoin="round" fill-opacity="0"></path><g><path stroke-linecap="round" stroke-linejoin="round" fill-opacity="0"></path></g><g><path stroke-linecap="round" stroke-linejoin="round" fill-opacity="0"></path></g></g></g></g><g clip-path="url(#__lottie_element_74973)" style="display: none;"><g clip-path="url(#__lottie_element_74998)" style="display: none;"><g style="display: none;"><path stroke-linecap="round" stroke-linejoin="round" fill-opacity="0"></path><g><path stroke-linecap="round" stroke-linejoin="round" fill-opacity="0"></path></g><g><path stroke-linecap="round" stroke-linejoin="round" fill-opacity="0"></path></g></g></g><g clip-path="url(#__lottie_element_74991)" style="display: none;"><g style="display: none;"><path stroke-linecap="round" stroke-linejoin="round" fill-opacity="0"></path><g><path stroke-linecap="round" stroke-linejoin="round" fill-opacity="0"></path></g><g><path stroke-linecap="round" stroke-linejoin="round" fill-opacity="0"></path></g></g></g><g clip-path="url(#__lottie_element_74984)" style="display: none;"><g style="display: none;"><path stroke-linecap="round" stroke-linejoin="round" fill-opacity="0"></path><g><path stroke-linecap="round" stroke-linejoin="round" fill-opacity="0"></path></g><g><path stroke-linecap="round" stroke-linejoin="round" fill-opacity="0"></path></g></g></g><g clip-path="url(#__lottie_element_74977)" style="display: none;"><g style="display: none;"><path stroke-linecap="round" stroke-linejoin="round" fill-opacity="0"></path><g><path stroke-linecap="round" stroke-linejoin="round" fill-opacity="0"></path></g><g><path stroke-linecap="round" stroke-linejoin="round" fill-opacity="0"></path></g></g></g></g></g></g></svg>
