<?xml version="1.0" standalone="no"?><!DOCTYPE svg PUBLIC "-//W3C//DTD SVG 1.1//EN" "http://www.w3.org/Graphics/SVG/1.1/DTD/svg11.dtd"><svg t="1672243258170" class="icon" viewBox="0 0 1024 1024" version="1.1" xmlns="http://www.w3.org/2000/svg" p-id="10864" xmlns:xlink="http://www.w3.org/1999/xlink" width="200" height="200"><path d="M520.13 518.36m-48.97 0a48.97 48.97 0 1 0 97.94 0 48.97 48.97 0 1 0-97.94 0Z" p-id="10865" data-spm-anchor-id="a313x.7781069.0.i41" class="" fill="#ffd100"></path><path d="M956.86 766.93c-8.41-56.64-34.14-123.35-74.42-192.9-9.69-16.73-31.1-22.43-47.83-12.75-16.73 9.69-22.43 31.1-12.75 47.83 68.75 118.71 87.36 221.23 47.41 261.17-23.86 23.86-71.03 27.25-132.82 9.54-58.64-16.81-127.11-52.01-196.09-100.47 42.36-34.21 84.31-72.02 125.14-112.85 52.65-52.65 100.3-107.15 141.63-161.99C866.77 425.38 909.95 349.74 932 285.78c11.84-34.33 17.46-65.12 16.73-91.52-0.9-32.15-10.98-58.07-29.95-77.05-18.98-18.98-44.9-29.06-77.05-29.96-26.4-0.74-57.19 4.89-91.52 16.73-63.96 22.05-139.59 65.23-218.73 124.87-54.84 41.33-109.35 88.99-161.99 141.63-40.83 40.83-78.64 82.78-112.85 125.14-48.46-68.98-83.66-137.45-100.47-196.09-17.71-61.79-14.32-108.96 9.55-132.83 24.38-24.38 67.6-22.86 99.56-17.29 51.56 8.99 113.54 34.99 179.23 75.21 16.49 10.09 38.03 4.91 48.12-11.58 10.09-16.49 4.91-38.03-11.58-48.12-73.14-44.77-143.59-73.98-203.76-84.47-87.51-15.25-135.9 11.57-161.08 36.75-30.18 30.18-59.43 89.65-27.34 201.61 20.69 72.19 63.15 152.98 123.3 234.91-51.54 71.4-89.11 139.28-109.18 197.49-11.84 34.33-17.46 65.12-16.73 91.52 0.9 32.15 10.98 58.07 29.95 77.05 18.98 18.98 44.9 29.06 77.05 29.96 1.53 0.04 3.07 0.06 4.63 0.06 25.34 0 54.55-5.64 86.89-16.79 58.21-20.07 126.09-57.64 197.47-109.19 81.93 60.15 162.72 102.61 234.91 123.3 34.54 9.9 64.07 13.96 89.29 13.96 56.56 0 91.45-20.43 112.31-41.3 24.16-24.14 50.37-70.25 38.1-152.85zM418.99 419.99c50.35-50.35 102.38-95.85 154.63-135.23 73.35-55.28 142.3-94.9 199.41-114.59 46.43-16.01 82.41-17.3 96.26-3.45 13.84 13.84 12.55 49.82-3.45 96.25-19.69 57.11-59.31 126.06-114.59 199.41-39.38 52.25-84.88 104.28-135.23 154.63-43.49 43.49-88.24 83.37-133.3 118.8l-0.75-0.6c-0.78-0.63-1.56-1.27-2.34-1.91-1.53-1.24-3.06-2.49-4.58-3.75-0.86-0.71-1.73-1.42-2.59-2.14-1.48-1.22-2.95-2.45-4.43-3.68-0.84-0.7-1.68-1.4-2.52-2.11-1.63-1.37-3.26-2.75-4.89-4.13-0.65-0.56-1.31-1.11-1.96-1.67-2.26-1.93-4.51-3.86-6.76-5.81-0.5-0.43-1-0.87-1.5-1.3-1.77-1.54-3.53-3.08-5.3-4.63-0.8-0.7-1.59-1.4-2.39-2.11-1.48-1.31-2.96-2.62-4.44-3.94l-2.53-2.26c-1.48-1.33-2.97-2.67-4.45-4.01-0.78-0.71-1.56-1.41-2.34-2.12-1.8-1.64-3.6-3.29-5.39-4.95-0.44-0.4-0.87-0.8-1.31-1.2-2.22-2.05-4.44-4.12-6.65-6.2-0.62-0.58-1.24-1.17-1.86-1.75-1.6-1.51-3.2-3.02-4.8-4.54-0.79-0.76-1.59-1.51-2.38-2.27-1.45-1.39-2.89-2.78-4.34-4.17-0.8-0.78-1.6-1.55-2.41-2.33-1.51-1.47-3.02-2.94-4.53-4.42-0.69-0.68-1.39-1.36-2.08-2.04-2.18-2.15-4.36-4.31-6.52-6.47-2.17-2.17-4.32-4.34-6.47-6.52-0.68-0.69-1.36-1.39-2.04-2.08-1.48-1.5-2.95-3.01-4.42-4.52-0.78-0.8-1.56-1.6-2.33-2.41-1.39-1.44-2.78-2.88-4.16-4.33-0.76-0.8-1.52-1.59-2.28-2.39-1.51-1.58-3.01-3.17-4.51-4.76-0.6-0.63-1.2-1.26-1.79-1.9-2.07-2.2-4.13-4.41-6.17-6.62-0.43-0.46-0.85-0.93-1.28-1.39a801.73 801.73 0 0 1-4.86-5.3c-0.73-0.8-1.45-1.6-2.17-2.39-1.32-1.46-2.64-2.91-3.95-4.37-0.78-0.86-1.55-1.73-2.32-2.6-1.29-1.45-2.58-2.89-3.86-4.34-0.73-0.83-1.47-1.65-2.19-2.48-1.5-1.7-2.98-3.41-4.47-5.11l-1.46-1.67c-1.94-2.23-3.86-4.47-5.77-6.72-0.58-0.68-1.16-1.36-1.73-2.04-1.36-1.6-2.71-3.2-4.06-4.8l-2.16-2.58c-1.21-1.45-2.42-2.91-3.63-4.36-0.73-0.88-1.45-1.76-2.18-2.64-1.25-1.51-2.48-3.03-3.72-4.55-0.64-0.79-1.29-1.57-1.92-2.36l-0.6-0.75c35.44-45.09 75.32-89.84 118.81-133.33zM261.97 866.83c-46.43 16.01-82.41 17.3-96.26 3.45-13.84-13.84-12.55-49.83 3.45-96.25 16.37-47.5 46.54-103.18 88.03-162.78 0.33 0.4 0.67 0.79 1 1.19 2.77 3.32 5.56 6.64 8.38 9.94 0.09 0.11 0.18 0.21 0.27 0.32 2.74 3.21 5.51 6.42 8.3 9.62 0.78 0.9 1.56 1.79 2.35 2.68 2.45 2.8 4.92 5.59 7.4 8.38 0.48 0.54 0.96 1.09 1.45 1.63 2.91 3.26 5.85 6.5 8.81 9.74 0.73 0.8 1.46 1.59 2.19 2.39 2.41 2.62 4.83 5.24 7.26 7.85 0.72 0.78 1.45 1.56 2.17 2.33 3.01 3.21 6.03 6.41 9.08 9.6 0.55 0.57 1.1 1.15 1.65 1.72 2.58 2.69 5.17 5.37 7.78 8.04l2.52 2.58a1204.486 1204.486 0 0 0 18.91 18.9l2.63 2.57c2.64 2.57 5.28 5.13 7.93 7.67 0.61 0.59 1.22 1.18 1.83 1.76 3.17 3.03 6.35 6.03 9.54 9.02 0.81 0.76 1.62 1.51 2.43 2.26 2.57 2.4 5.15 4.78 7.73 7.15 0.83 0.76 1.65 1.52 2.48 2.27 3.22 2.94 6.45 5.86 9.69 8.76 0.57 0.51 1.14 1.01 1.71 1.52 2.76 2.46 5.53 4.9 8.3 7.33 0.9 0.79 1.81 1.58 2.72 2.37 3.19 2.78 6.39 5.54 9.59 8.28 0.11 0.09 0.22 0.19 0.33 0.28 3.31 2.82 6.63 5.61 9.95 8.39 0.39 0.33 0.78 0.66 1.18 0.99-59.59 41.51-115.28 71.68-162.78 88.05z" p-id="10866" data-spm-anchor-id="a313x.7781069.0.i42" class="selected" fill="#ffffff"></path></svg>