<?xml version="1.0" standalone="no"?><!DOCTYPE svg PUBLIC "-//W3C//DTD SVG 1.1//EN" "http://www.w3.org/Graphics/SVG/1.1/DTD/svg11.dtd"><svg t="1672232814543" class="icon" viewBox="0 0 1024 1024" version="1.1" xmlns="http://www.w3.org/2000/svg" p-id="7833" xmlns:xlink="http://www.w3.org/1999/xlink" width="200" height="200"><path d="M485.875512 216.938146c-82.419512 0-157.346341 39.960976-204.8 99.902439l19.980488 17.482927c42.458537-54.946341 109.892683-89.912195 184.819512-89.912195s142.360976 34.965854 184.819512 89.912195l19.980488-17.482927c-47.453659-59.941463-122.380488-99.902439-204.8-99.902439m0 149.853659c-34.965854 0-67.434146 17.482927-87.414634 42.458536l19.980488 14.985366c14.985366-19.980488 39.960976-32.468293 67.434146-32.468292s52.44878 12.487805 67.434147 32.468292l19.980487-14.985366c-19.980488-27.473171-52.44878-42.458537-87.414634-42.458536m0 72.429268c19.980488 0 37.463415 17.482927 37.463415 37.463415s-17.482927 37.463415-37.463415 37.463414-37.463415-17.482927-37.463414-37.463414 17.482927-37.463415 37.463414-37.463415z m0-147.356097c59.941463 0 112.390244 27.473171 147.356098 72.429268l-19.980488 14.985366c-29.970732-37.463415-74.926829-62.439024-127.37561-62.439025s-97.404878 24.97561-127.37561 62.439025l-19.980487-14.985366c34.965854-44.956098 87.414634-72.429268 147.356097-72.429268z" fill="#ffffff" p-id="7834" data-spm-anchor-id="a313x.7781069.0.i51" class=""></path><path d="M887.982829 926.245463H116.236488c-37.463415 0-69.931707-29.970732-69.931708-69.931707v-187.317073c0-37.463415 29.970732-69.931707 69.931708-69.931707h771.746341c37.463415 0 69.931707 29.970732 69.931708 69.931707V858.811317c0 37.463415-32.468293 67.434146-69.931708 67.434146zM116.236488 641.523512c-17.482927 0-29.970732 14.985366-29.970732 29.970732V858.811317c0 17.482927 14.985366 29.970732 29.970732 29.970732h771.746341c17.482927 0 29.970732-14.985366 29.970732-29.970732v-187.317073c0-17.482927-14.985366-29.970732-29.970732-29.970732H116.236488z" fill="#ffffff" p-id="7835" data-spm-anchor-id="a313x.7781069.0.i52" class=""></path><path d="M790.577951 641.523512c-9.990244 0-19.980488-7.492683-19.980488-19.980488V109.543024c0-9.990244 7.492683-19.980488 19.980488-19.980487s19.980488 7.492683 19.980488 19.980487v512c0 9.990244-9.990244 19.980488-19.980488 19.980488zM191.163317 641.523512c-9.990244 0-19.980488-7.492683-19.980488-19.980488V109.543024c0-9.990244 7.492683-19.980488 19.980488-19.980487s19.980488 9.990244 19.980488 19.980487v512c0 9.990244-9.990244 19.980488-19.980488 19.980488z" fill="#ffffff" p-id="7836" data-spm-anchor-id="a313x.7781069.0.i53" class=""></path><path d="M148.70478 773.894244a37.463415 37.463415 0 1 0 74.92683 0 37.463415 37.463415 0 1 0-74.92683 0Z" fill="#ffffff" p-id="7837" data-spm-anchor-id="a313x.7781069.0.i56" class=""></path><path d="M246.109659 773.894244a37.463415 37.463415 0 1 0 74.926829 0 37.463415 37.463415 0 1 0-74.926829 0Z" fill="#ffffff" p-id="7838" data-spm-anchor-id="a313x.7781069.0.i55" class=""></path><path d="M343.514537 773.894244a37.463415 37.463415 0 1 0 74.926829 0 37.463415 37.463415 0 1 0-74.926829 0Z" fill="#ffffff" p-id="7839" data-spm-anchor-id="a313x.7781069.0.i54" class=""></path></svg>