<?xml version="1.0" standalone="no"?><!DOCTYPE svg PUBLIC "-//W3C//DTD SVG 1.1//EN" "http://www.w3.org/Graphics/SVG/1.1/DTD/svg11.dtd"><svg t="1672243197676" class="icon" viewBox="0 0 1024 1024" version="1.1" xmlns="http://www.w3.org/2000/svg" p-id="9250" xmlns:xlink="http://www.w3.org/1999/xlink" width="200" height="200"><path d="M514.894052 473.493977a33.458481 33.458481 0 0 1-13.159625-2.696924l-165.186864-70.67518c-16.98604-7.267097-24.864766-26.928749-17.597669-43.915854 7.267097-16.98604 26.928749-24.8637 43.915854-17.597669l151.95265 65.012811 124.301452-53.792499c16.955138-7.337424 36.650889 0.459255 43.987247 17.415459 7.338489 16.956204-0.459255 36.650889-17.414394 43.988312L528.181544 470.741644a33.462743 33.462743 0 0 1-13.287492 2.752333z m332.142552-143.72442c-12.936924 0-25.253694-7.547338-30.717869-20.175251-7.338489-16.956204 0.459255-36.650889 17.415459-43.988312l65.736324-28.449299L512.198194 70.517478 125.332912 236.980878l54.735517 23.418806c16.98604 7.267097 24.864766 26.928749 17.597669 43.915854-7.267097 16.98604-26.927684 24.864766-43.915855 17.597669l-126.417648-54.087659a33.454219 33.454219 0 0 1-0.063933-61.485819L498.974635 3.368225a33.458481 33.458481 0 0 1 26.444986 0L997.12666 206.339729a33.453153 33.453153 0 0 1 0.062868 61.431476l-136.884612 59.23856a33.349794 33.349794 0 0 1-13.268312 2.759792zM445.288691 1023.529024c-4.829103 0-9.672058-1.044246-14.183625-3.157245L26.306464 830.839076A33.453153 33.453153 0 0 1 7.038002 800.542102V372.714689a33.455284 33.455284 0 0 1 46.374094-30.857457l404.799667 169.498106a33.455284 33.455284 0 0 1 20.533278 30.857457v447.86201a33.455284 33.455284 0 0 1-33.45635 33.454219zM73.945374 779.266131L411.837669 937.472533V564.47334L73.945374 422.990851v356.27528zM575.749061 1023.529024a33.454219 33.454219 0 0 1-33.456349-33.454219V544.803163a33.454219 33.454219 0 0 1 20.36492-30.78713l404.800732-172.088474a33.454219 33.454219 0 0 1 46.541386 30.78713v447.86201a33.455284 33.455284 0 0 1-20.533278 30.857457l-404.800732 169.498106a33.409465 33.409465 0 0 1-12.916679 2.596762z m33.452088-456.596379V939.799709l337.892295-141.482489V423.288142L609.201149 566.932645z" p-id="9251" data-spm-anchor-id="a313x.7781069.0.i33" class="selected" fill="#ffffff"></path><path d="M512.198194 114.612345l-297.276471 127.37665 299.972329 127.376649 277.644654-132.296325z" fill="#ffd100" p-id="9252" data-spm-anchor-id="a313x.7781069.0.i32" class=""></path><path d="M512.181145 814.688433c-4.439109 0-8.949611-0.888674-13.282165-2.766185L229.592308 695.250181c-16.953007-7.344882-24.742227-27.041698-17.39841-43.994705 7.344882-16.954073 27.042764-24.743292 43.995771-17.397345l269.306672 116.673132c16.953007 7.344882 24.743292 27.041698 17.397345 43.994706-5.467371 12.620454-17.780945 20.162464-30.712541 20.162464z" p-id="9253" data-spm-anchor-id="a313x.7781069.0.i35" class="selected" fill="#ffffff"></path><path d="M520.493553 812.961165c-13.492079 0-30.464266-8.22077-35.540579-21.581785-6.561698-17.271609 2.120458-36.592283 19.391001-43.153981l261.92343-98.103676c17.27374-6.564895 36.593349 2.119392 43.153981 19.391001 6.561698 17.271609-2.120458 36.592283-19.391001 43.153982l-261.924495 98.10474c-3.910593 1.485386-3.66445 2.189719-7.612337 2.189719z" p-id="9254" data-spm-anchor-id="a313x.7781069.0.i34" class="" fill="#ffffff"></path></svg>