<?xml version="1.0" standalone="no"?><!DOCTYPE svg PUBLIC "-//W3C//DTD SVG 1.1//EN" "http://www.w3.org/Graphics/SVG/1.1/DTD/svg11.dtd"><svg t="1672243102441" class="icon" viewBox="0 0 1024 1024" version="1.1" xmlns="http://www.w3.org/2000/svg" p-id="7530" data-spm-anchor-id="a313x.7781069.0.i20" xmlns:xlink="http://www.w3.org/1999/xlink" width="200" height="200"><path d="M310.489 697.867c-13.3 0-26.5-5.9-35.4-17.2l-112.1-142.7c-15.3-19.5-11.9-47.8 7.6-63.1 19.6-15.3 47.8-11.9 63.1 7.6l112.1 142.7c15.3 19.5 11.9 47.8-7.6 63.1-8.2 6.4-17.9 9.6-27.7 9.6zM454.289 669.267c-7.4 0-14.9-1.8-21.9-5.7-21.7-12.1-29.4-39.5-17.3-61.1l159.3-285.4c12-21.7 39.4-29.5 61.1-17.3 21.7 12.1 29.5 39.5 17.4 61.2l-159.3 285.2c-8.3 14.7-23.6 23.1-39.3 23.1z" fill="#ffffff" p-id="7531" data-spm-anchor-id="a313x.7781069.0.i18" class=""></path><path d="M827.689 565.067c-14.2 0-28-6.6-36.8-19.1l-127.6-181.2c-14.3-20.3-9.4-48.3 10.8-62.6 20.4-14.3 48.3-9.4 62.6 10.9l127.6 181.2c14.3 20.3 9.4 48.3-10.8 62.6-7.8 5.5-16.9 8.2-25.8 8.2z" fill="#ffffff" p-id="7532" data-spm-anchor-id="a313x.7781069.0.i19" class="selected"></path><path d="M139.289 555.067c-72 0-130.6-58.6-130.6-130.6s58.6-130.6 130.6-130.6 130.6 58.6 130.6 130.6-58.6 130.6-130.6 130.6z m0-171.2c-22.4 0-40.7 18.2-40.7 40.6 0 22.4 18.2 40.7 40.7 40.7s40.7-18.2 40.7-40.7c-0.1-22.4-18.3-40.6-40.7-40.6zM881.289 726.367c-72 0-130.6-58.6-130.6-130.6s58.6-130.6 130.6-130.6 130.6 58.6 130.6 130.6-58.6 130.6-130.6 130.6z m0-171.3c-22.4 0-40.6 18.2-40.6 40.6 0 22.4 18.2 40.7 40.6 40.7 22.4 0 40.7-18.2 40.7-40.7 0-22.3-18.3-40.6-40.7-40.6zM396.089 897.567c-87.7 0-159.1-71.4-159.1-159.1s71.4-159.2 159.1-159.2 159.1 71.4 159.1 159.2-71.3 159.1-159.1 159.1z m0-228.3c-38.2 0-69.2 31-69.2 69.2 0 38.1 31 69.2 69.2 69.2s69.2-31 69.2-69.2-31-69.2-69.2-69.2zM652.989 383.867c-72 0-130.6-58.6-130.6-130.6s58.6-130.6 130.6-130.6 130.6 58.6 130.6 130.6-58.6 130.6-130.6 130.6z m0-171.3c-22.4 0-40.7 18.2-40.7 40.7s18.2 40.7 40.7 40.7c22.4 0 40.6-18.2 40.6-40.7s-18.2-40.7-40.6-40.7z" fill="#ffd100" p-id="7533" data-spm-anchor-id="a313x.7781069.0.i17" class=""></path></svg>