<?xml version="1.0" standalone="no"?><!DOCTYPE svg PUBLIC "-//W3C//DTD SVG 1.1//EN" "http://www.w3.org/Graphics/SVG/1.1/DTD/svg11.dtd"><svg t="1672243003087" class="icon" viewBox="0 0 1024 1024" version="1.1" xmlns="http://www.w3.org/2000/svg" p-id="4711" data-spm-anchor-id="a313x.7781069.0.i13" xmlns:xlink="http://www.w3.org/1999/xlink" width="200" height="200"><path d="M1024 320.2c0-141.4-114.6-256-256-256s-256 114.6-256 256c0 89.9 46.6 168.7 116.7 214.4C449.5 593.2 320 761.5 320 960.2h64c0-211.7 172.3-384 384-384 141.4 0 256-114.6 256-256z m-448 0c0-105.9 86.1-192 192-192s192 86.1 192 192-86.1 192-192 192-192-86.1-192-192zM896 640.2h-64v128H704v64h128v128h64v-128h128v-64H896z" fill="#ffd100" p-id="4712" data-spm-anchor-id="a313x.7781069.0.i12" class=""></path><path d="M448 512.2c-105.9 0-192-86.1-192-192s86.1-192 192-192v-64c-141.4 0-256 114.6-256 256 0 89.9 46.6 168.7 116.7 214.4C129.5 593.2 0 761.5 0 960.2h64c0-211.7 172.3-384 384-384v-64z" fill="#ffffff" p-id="4713" data-spm-anchor-id="a313x.7781069.0.i14" class=""></path></svg>