<?xml version="1.0" standalone="no"?><!DOCTYPE svg PUBLIC "-//W3C//DTD SVG 1.1//EN" "http://www.w3.org/Graphics/SVG/1.1/DTD/svg11.dtd"><svg t="1637814829849" class="icon" viewBox="0 0 1024 1024" version="1.1" xmlns="http://www.w3.org/2000/svg" p-id="13328" xmlns:xlink="http://www.w3.org/1999/xlink" width="128" height="128"><defs><style type="text/css"></style></defs><path d="M526.592 632.704c22.848 0 41.6-18.752 41.6-41.6a41.728 41.728 0 0 0-41.6-41.6H432.896A37.312 37.312 0 0 1 395.52 512l-0.064-272.64h545.344V512c0 20.8-16.64 37.44-37.44 37.44h-112.384a41.728 41.728 0 0 0-41.6 41.6c0 22.912 18.688 41.664 41.6 41.664h112.384C969.856 632.704 1024 578.624 1024 512V120.704C1024 54.144 969.856 0 903.296 0h-470.4c-66.56 0-120.704 54.144-120.704 120.704V512c0 66.56 54.144 120.704 120.704 120.704h93.696z m414.144-476.544H395.392v-35.456c0-20.8 16.704-37.44 37.504-37.44h470.4c20.8 0 37.44 16.64 37.44 37.44v35.456zM591.104 1024c66.56 0 120.704-54.144 120.704-120.704V512c-2.112-66.56-56.192-120.704-122.816-120.704H516.16a41.728 41.728 0 0 0-41.6 41.6c0 22.912 18.688 41.6 41.6 41.6h72.832c20.8 0 37.504 16.64 37.504 37.504l-0.064 272.704H83.2V514.112c0-20.864 16.704-37.504 37.504-37.504h114.496c22.912 0 41.6-18.752 41.6-41.6a41.728 41.728 0 0 0-41.6-41.6H120.704C54.144 393.344 0 447.424 0 514.048v389.12c0 31.296 12.48 62.464 35.392 85.376 22.912 22.912 52.032 35.392 85.312 35.392h470.4z m-2.112-83.2h-470.4a34.496 34.496 0 0 1-24.96-10.432 38.4 38.4 0 0 1-10.368-24.96L83.2 867.84h543.232v35.392c0 20.8-16.64 37.44-37.44 37.44z" fill="#2249C0" p-id="13329"></path></svg>