<?xml version="1.0" standalone="no"?><!DOCTYPE svg PUBLIC "-//W3C//DTD SVG 1.1//EN" "http://www.w3.org/Graphics/SVG/1.1/DTD/svg11.dtd"><svg t="1637814890867" class="icon" viewBox="0 0 1024 1024" version="1.1" xmlns="http://www.w3.org/2000/svg" p-id="15650" xmlns:xlink="http://www.w3.org/1999/xlink" width="128" height="128"><defs><style type="text/css"></style></defs><path d="M921.088 171.2128v68.1984H375.3984V171.2128H921.088zM204.8512 307.6608c56.32 0 102.2976-46.08 102.2976-102.3488 0-56.32-46.0288-102.2976-102.2976-102.2976-56.32 0-102.2976 46.0288-102.2976 102.2976 0 56.32 46.0288 102.3488 102.2976 102.3488z m136.448 170.496H102.5536v68.1984h238.7456V478.208z m341.0432 68.2496h238.7456V478.1568h-238.7456v68.2496z m-170.496-136.448c-56.32 0-102.4 46.08-102.4 102.2976 0 56.32 46.08 102.3488 102.4 102.3488 56.2688 0 102.2976-46.08 102.2976-102.3488 0-56.2688-46.08-102.2976-102.3488-102.2976z m-409.2928 443.392H648.192v-68.1984H102.5536v68.1984z m716.2368-136.448c-56.32 0-102.3488 46.08-102.3488 102.3488 0 56.2688 46.08 102.2976 102.3488 102.2976 56.2688 0 102.2976-46.08 102.2976-102.2976 0-56.32-46.08-102.3488-102.2976-102.3488z" fill="#8341F7" p-id="15651"></path></svg>