<?xml version="1.0" standalone="no"?><!DOCTYPE svg PUBLIC "-//W3C//DTD SVG 1.1//EN" "http://www.w3.org/Graphics/SVG/1.1/DTD/svg11.dtd"><svg t="1637814778321" class="icon" viewBox="0 0 1024 1024" version="1.1" xmlns="http://www.w3.org/2000/svg" p-id="12253" xmlns:xlink="http://www.w3.org/1999/xlink" width="128" height="128"><defs><style type="text/css"></style></defs><path d="M927.2 215.2v-46.4c0-18.4-15.2-33.6-33.6-33.6H208c-18.4 0-33.6 15.2-33.6 33.6V636.8c0 18.4 15.2 23.2 33.6 23.2h210.4l-7.2 82.4h-50.4v20h377.6v-20h-48.8l-7.2-82.4h210.4c18.4 0 33.6-4.8 33.6-23.2V215.2h0.8z m-27.2 391.2c0 11.2-8.8 20-20 20H222.4c-11.2 0-20-8.8-20-20V195.2c0-4.8 1.6-19.2 4.8-23.2 4-4 8.8-7.2 15.2-7.2H880c6.4 0 11.2 2.4 15.2 7.2 3.2 3.2 4.8 17.6 4.8 23.2v411.2z" fill="#5787BE" p-id="12254"></path><path d="M625.6 476H350.4c-11.2 0-20 7.2-20 16.8V544c0 8.8 8.8 16.8 20 16.8h275.2c11.2 0 20-7.2 20-16.8v-51.2c0-9.6-8.8-16.8-20-16.8z m13.6 67.2c0 6.4-5.6 11.2-13.6 11.2H350.4c-7.2 0-13.6-4.8-13.6-11.2v-51.2c0-6.4 5.6-11.2 13.6-11.2h275.2c7.2 0 13.6 4.8 13.6 11.2v51.2z m-13.6-163.2H350.4c-11.2 0-20 7.2-20 16.8V448c0 8.8 8.8 16.8 20 16.8h275.2c11.2 0 20-7.2 20-16.8v-51.2c0-8.8-8.8-16.8-20-16.8z m13.6 68c0 6.4-5.6 11.2-13.6 11.2H350.4c-7.2 0-13.6-4.8-13.6-11.2v-51.2c0-6.4 5.6-11.2 13.6-11.2h275.2c7.2 0 13.6 4.8 13.6 11.2V448z m-288.8-79.2h228.8c11.2 0 20-7.2 20-16.8v-51.2c0-8.8-8.8-16.8-20-16.8H350.4c-11.2 0-20 7.2-20 16.8V352c0 9.6 8.8 16.8 20 16.8z m-12.8-68c0-6.4 5.6-11.2 13.6-11.2h228.8c7.2 0 13.6 4.8 13.6 11.2V352c0 6.4-5.6 11.2-13.6 11.2H350.4c-7.2 0-13.6-4.8-13.6-11.2v-51.2z" fill="#5787BE" p-id="12255"></path><path d="M432 332h128c1.6 0 3.2-1.6 3.2-2.4 0-1.6-1.6-2.4-3.2-2.4H432c-1.6 0-3.2 1.6-3.2 2.4 0 1.6 1.6 2.4 3.2 2.4z m168 90.4H432c-1.6 0-3.2 1.6-3.2 2.4 0 1.6 1.6 2.4 3.2 2.4h168c1.6 0 3.2-1.6 3.2-2.4 0-0.8-0.8-2.4-3.2-2.4z m0 92H432c-1.6 0-3.2 1.6-3.2 2.4s1.6 3.2 3.2 3.2h168c1.6 0 3.2-1.6 3.2-2.4s-0.8-3.2-3.2-3.2zM386.4 343.2c10.4 0 18.4-7.2 18.4-15.2s-8-15.2-18.4-15.2S368 320 368 328c0 8.8 8 15.2 18.4 15.2z m0-25.6c6.4 0 12 4.8 12 10.4s-5.6 10.4-12 10.4-12-4.8-12-10.4c0-5.6 5.6-9.6 12-10.4z m0 89.6c-10.4 0-18.4 7.2-18.4 15.2 0 8.8 8 15.2 18.4 15.2s18.4-7.2 18.4-15.2c0-8.8-8-15.2-18.4-15.2z m0 24.8c-6.4 0-12-4.8-12-10.4s5.6-10.4 12-10.4 12 4.8 12 10.4c0.8 6.4-4.8 10.4-12 10.4z m308.8-92c30.4-8.8 50.4-32.8 49.6-60 0-34.4-31.2-62.4-70.4-62.4s-70.4 28-70.4 62.4c-0.8 27.2 20 51.2 51.2 60-16.8 5.6-31.2 15.2-41.6 27.2-0.8 0.8-0.8 3.2 0.8 4 1.6 0.8 3.2 0.8 4.8-0.8 16.8-18.4 36.8-28 56.8-28 57.6 0 104.8 79.2 106.4 176H658.4c-1.6 0-3.2 1.6-3.2 2.4 0 1.6 1.6 2.4 3.2 2.4h126.4c1.6 0 3.2-0.8 3.2-2.4 0-90.4-40-165.6-92.8-180.8z m-84-59.2c0-31.2 28.8-56.8 63.2-56.8 35.2 0 63.2 25.6 63.2 56.8s-28.8 57.6-63.2 57.6-63.2-26.4-63.2-57.6z" fill="#74C293" p-id="12256"></path><path d="M958.4 848.8h-49.6c-5.6 0-10.4 4.8-10.4 10.4s4.8 10.4 10.4 10.4h49.6c5.6 0 10.4-4.8 10.4-10.4s-4.8-10.4-10.4-10.4zM844.8 848.8H617.6c-5.6 0-10.4 4.8-10.4 10.4s4.8 10.4 10.4 10.4h227.2c5.6 0 10.4-4.8 10.4-10.4s-4.8-10.4-10.4-10.4zM534.4 892h-49.6c-5.6 0-10.4 4.8-10.4 10.4s4.8 10.4 10.4 10.4h49.6c5.6 0 10.4-4.8 10.4-10.4s-4-10.4-10.4-10.4zM420.8 892H111.2c-5.6 0-10.4 4.8-10.4 10.4s4.8 10.4 10.4 10.4h309.6c5.6 0 10.4-4.8 10.4-10.4 0-5.6-4.8-10.4-10.4-10.4zM212.8 819.2h32.8c5.6 0 10.4-4.8 10.4-10.4s-4.8-10.4-10.4-10.4h-32.8c-5.6 0-10.4 4.8-10.4 10.4s4 10.4 10.4 10.4zM276.8 808.8c0 5.6 4.8 10.4 10.4 10.4h101.6c5.6 0 10.4-4.8 10.4-10.4s-9.6-12-15.2-12l4.8 1.6H287.2c-5.6-0.8-10.4 4-10.4 10.4zM712 819.2h80c5.6 0 10.4-4.8 10.4-10.4s-4.8-10.4-10.4-10.4H712c-5.6 0-11.2 4.8-11.2 10.4s4.8 10.4 11.2 10.4z" fill="#83AFDB" p-id="12257"></path><path d="M412 506.4l-18.4 20-8-8.8-0.8-0.8c-0.8 0-0.8 0-1.6 0.8l-3.2 3.2c-0.8 0.8-0.8 1.6 0 2.4 0.8 0.8 1.6 0.8 2.4 0l2.4-2.4 8 8.8 20-20.8c0.8-0.8 0.8-1.6 0-2.4 0.8-0.8-0.8 0-0.8 0z" fill="#74C293" p-id="12258"></path></svg>